<?xml version="1.0" encoding="UTF-8"?> <svg xmlns="http://www.w3.org/2000/svg" id="Layer_1" data-name="Layer 1" viewBox="0 0 160.17 50"><g id="aza"><polygon points="66.92 28.95 73.9 21.1 67.16 21.1 67.16 17.85 79.19 17.85 79.19 20.61 72.25 28.47 79.19 28.47 79.19 31.72 66.92 31.72 66.92 28.95" fill="#e96a56"></polygon><path d="M80.64,24.83h0a7.29,7.29,0,0,1,7.52-7.27,7.2,7.2,0,0,1,7.46,7.18v0A7.28,7.28,0,0,1,88.11,32a7.2,7.2,0,0,1-7.47-7.18m11,0h0a3.63,3.63,0,0,0-3.59-3.78,3.51,3.51,0,0,0-3.49,3.73v0a3.54,3.54,0,1,0,7.08.37v-.37" fill="#e96a56"></path><path d="M97.13,24.83h0a7.29,7.29,0,0,1,7.51-7.27,7.2,7.2,0,0,1,7.47,7.18v0A7.28,7.28,0,0,1,104.6,32a7.2,7.2,0,0,1-7.47-7.18m11,0h0a3.63,3.63,0,0,0-3.59-3.78,3.5,3.5,0,0,0-3.49,3.73v0a3.54,3.54,0,1,0,7.08.37v-.37" fill="#e96a56"></path><path d="M113,29.68l2.14-2.57a7,7,0,0,0,4.51,1.65c1,0,1.6-.34,1.6-1v-.05c0-.58-.44-.87-2.33-1.31-3-.68-5.24-1.5-5.24-4.36V22c0-2.57,2-4.46,5.38-4.46a8.77,8.77,0,0,1,5.73,1.84l-1.94,2.72A7.06,7.06,0,0,0,119,20.76c-.92,0-1.41.39-1.41.87v.05c0,.63.49.92,2.43,1.36,3.2.68,5.18,1.74,5.18,4.31v0c0,2.86-2.23,4.51-5.62,4.51A9.49,9.49,0,0,1,113,29.68" fill="#e96a56"></path><path d="M6,35.31H9.7l5.91,14H11.49l-1-2.47H5.09l-1,2.47H0Zm3.4,8.48L7.81,39.87,6.26,43.79Z" fill="#e96a56"></path><path d="M26.77,48.35a7.62,7.62,0,0,1-4.22,1.21,7.23,7.23,0,0,1-7.47-7.17v0a7.28,7.28,0,0,1,7.52-7.23,7.2,7.2,0,0,1,7.46,7.18v.05a6.93,6.93,0,0,1-1.21,4l1.41,1.22-1.94,2.18ZM24,45.88l-1.94-1.65L24,42.05l1.89,1.69a4.14,4.14,0,0,0,.25-1.35h0a3.63,3.63,0,0,0-3.59-3.79,3.53,3.53,0,0,0-3.49,3.74v0a3.61,3.61,0,0,0,3.54,3.78,3.55,3.55,0,0,0,1.4-.29" fill="#e96a56"></path><path d="M31.76,43.11v-7.8h3.93V43c0,2,1,3,2.57,3s2.57-.93,2.57-2.87v-7.8h3.93V43c0,4.51-2.57,6.45-6.5,6.45s-6.5-2-6.5-6.36" fill="#e96a56"></path><path d="M50.58,35.31h3.73l5.92,14H56.1l-1-2.47H49.7l-1,2.47H44.61ZM54,43.79l-1.55-3.92-1.55,3.92Z" fill="#e96a56"></path><path d="M61.24,35.4h6.55a5.93,5.93,0,0,1,4.51,1.51,4.22,4.22,0,0,1,1.21,3.25v0a4.35,4.35,0,0,1-2.86,4.27L74,49.32H69.49L66.68,45.1H65v4.22H61.15V35.4Zm6.41,6.65c1.3,0,2.08-.63,2.08-1.65v0c0-1.12-.78-1.65-2.08-1.65H65.12v3.35Z" fill="#e96a56"></path><rect x="75.69" y="35.36" width="3.88" height="13.97" fill="#e96a56"></rect><path d="M81.8,43.21V35.4h3.93v7.71c0,2,1,3,2.57,3s2.57-.92,2.57-2.86V35.4H94.8v7.71c0,4.51-2.57,6.45-6.5,6.45s-6.5-2-6.5-6.35" fill="#e96a56"></path><polygon points="96.84 35.36 100.91 35.36 104.26 40.74 107.6 35.36 111.67 35.36 111.67 49.32 107.84 49.32 107.84 41.27 104.26 46.75 104.16 46.75 100.62 41.32 100.62 49.32 96.84 49.32 96.84 35.36" fill="#e96a56"></polygon><path d="M113.08,47.24l2.13-2.57a7,7,0,0,0,4.51,1.64c1,0,1.6-.33,1.6-1v0c0-.59-.43-.88-2.32-1.31-3-.68-5.24-1.51-5.24-4.37v0c0-2.57,2-4.46,5.38-4.46A8.68,8.68,0,0,1,124.86,37l-1.94,2.71a7.13,7.13,0,0,0-3.87-1.36c-.93,0-1.41.39-1.41.88v0c0,.64.48.93,2.42,1.36,3.2.68,5.19,1.75,5.19,4.32V45c0,2.86-2.23,4.51-5.62,4.51a9.58,9.58,0,0,1-6.55-2.23" fill="#e96a56"></path><path d="M159.39,28.37c-2.28.25-5.48-2.18-9.65-1.89A11.79,11.79,0,0,0,145,27.89c2.57-2.62,2.33-5.38,1.7-6.65-1.46-2.86-5-3.68-7.67-3.68-7.8,0-10.37,5.14-10.37,9a10.06,10.06,0,0,0,3.59,7.08c-4,2.62-5,5.58-5,8.53,0,5.1,4.41,7.86,9.7,7.86a16.92,16.92,0,0,0,10-3.35c3.39,2.77,4.8,3.25,7.13,3.3a6.69,6.69,0,0,0,6.11-3.44c-2-.15-6-2.57-8.59-4.85,2.23-2.81,2.57-6.6,2-9.8,3.15-.67,5.24-2.08,5.82-3.49M139.7,45.78c-3.63,0-6.49-2.18-6.49-5.58a7,7,0,0,1,1.5-4.41l9.84,8.88c-1.55,1.16-3.83,1.11-4.85,1.11m9.12-6.69-12.46-11a4.58,4.58,0,0,1-1.8-3.49,4,4,0,0,1,4.17-3.83,3.89,3.89,0,0,1,4.12,4.12,10.74,10.74,0,0,1-1.06,4.7h0c1.21,1.7,5,2.38,6.35,2.53a8.38,8.38,0,0,1,.68,6.93" fill="#e96a56"></path><path d="M34.62,24.83h0a7.29,7.29,0,0,1,7.52-7.27,7.21,7.21,0,0,1,7.47,7.18v0A7.28,7.28,0,0,1,42.09,32a7.2,7.2,0,0,1-7.47-7.18m11.06,0h0a3.63,3.63,0,0,0-3.59-3.78,3.51,3.51,0,0,0-3.49,3.73v0a3.54,3.54,0,1,0,7.08.37,2.28,2.28,0,0,0,0-.37" fill="#91867e"></path><polygon points="51.4 17.85 62.51 17.85 62.51 21.2 55.28 21.2 55.28 23.57 61.83 23.57 61.83 26.77 55.28 26.77 55.28 31.72 51.4 31.72 51.4 17.85" fill="#91867e"></polygon><path d="M9.75.25H6l-5.91,14H4.22s.92-2.32,1-2.42h5.19c0,.1,1,2.42,1,2.42h4.26ZM6.4,8.64c.1-.2,1.26-3.25,1.41-3.59.14.34,1.31,3.39,1.4,3.59Z" fill="#91867e"></path><path d="M16.49,4.56h0c0,3,2.47,3.79,5.23,4.42,1.9.43,2.23.72,2.23,1.21v.05c0,.53-.53.87-1.5.87A6.81,6.81,0,0,1,18,9.46L18,9.41l-2.23,2.67.05.05a10,10,0,0,0,6.5,2.28c3.49,0,5.62-1.75,5.62-4.56v0c0-2.67-2.08-3.68-5.19-4.36C20.8,5,20.46,4.71,20.46,4.18v0c0-.49.49-.78,1.26-.78a6.78,6.78,0,0,1,3.79,1.36l0,0,2-2.81-.05-.05A8.56,8.56,0,0,0,21.82.05c-3.2.05-5.33,1.85-5.33,4.51" fill="#91867e"></path><path d="M30,4.56h0c0,3,2.47,3.79,5.23,4.42,1.89.43,2.23.72,2.23,1.21v.05c0,.53-.53.87-1.5.87a6.81,6.81,0,0,1-4.41-1.65l-.05-.05-2.23,2.67.05.05a9.48,9.48,0,0,0,6.49,2.28c3.5,0,5.63-1.75,5.63-4.56v0c0-2.67-2.09-3.68-5.19-4.36C34.33,5,34,4.71,34,4.18v0c0-.49.49-.78,1.31-.78a6.72,6.72,0,0,1,3.78,1.36l.05,0,2-2.81,0-.05A8.56,8.56,0,0,0,35.4.05C32.15.1,30,1.9,30,4.56" fill="#91867e"></path><path d="M59.69,7.28h0a7,7,0,0,0,6.82,7.22h.36A7,7,0,0,0,73,11.35l0,0-3-2.13,0,.05a3.75,3.75,0,0,1-3,1.65,3.36,3.36,0,0,1-3.2-3.59v0A3.29,3.29,0,0,1,67,3.69a3.56,3.56,0,0,1,2.91,1.55l0,0L73,3l0,0A6.79,6.79,0,0,0,67.06,0a7.19,7.19,0,0,0-7.37,7.27" fill="#91867e"></path><polygon points="79.14 0.25 75.21 0.25 75.21 14.21 79.23 14.21 79.23 0.25 79.14 0.25" fill="#91867e"></polygon><path d="M90.29.25H86.51l-5.92,14h4.17l1-2.42h5.19c0,.1,1,2.42,1,2.42h4.27ZM86.94,8.64c.1-.2,1.27-3.25,1.41-3.59.15.34,1.31,3.39,1.41,3.59Z" fill="#91867e"></path><polygon points="107.36 0.25 95.28 0.25 95.28 3.79 99.41 3.79 99.41 14.21 103.33 14.21 103.33 3.79 107.46 3.79 107.46 0.25 107.36 0.25" fill="#91867e"></polygon><polygon points="113.47 0.25 109.54 0.25 109.54 14.21 113.52 14.21 113.52 0.25 113.47 0.25" fill="#91867e"></polygon><path d="M50.67.05a7.24,7.24,0,0,0-7.46,7.23v0a7.47,7.47,0,0,0,14.93,0v0A7.27,7.27,0,0,0,50.77.05h-.1m3.4,7.28a3.42,3.42,0,0,1-3.26,3.58h-.14a3.5,3.5,0,0,1-3.44-3.56V7.23a3.42,3.42,0,0,1,3.25-3.58h.14a3.56,3.56,0,0,1,3.45,3.64Z" fill="#91867e"></path><path d="M122.88.05a7.25,7.25,0,0,0-7.47,7.23v0a7.47,7.47,0,0,0,14.93,0v0A7.27,7.27,0,0,0,123,.05h-.1m3.39,7.28A3.42,3.42,0,0,1,123,10.91h-.14a3.51,3.51,0,0,1-3.45-3.56V7.23a3.42,3.42,0,0,1,3.26-3.58h.14a3.55,3.55,0,0,1,3.44,3.64Z" fill="#91867e"></path><path d="M145.23.25H141.4V7.38C141.11,7,135.87.25,135.87.25h-3.68v14h3.92V6.84l5.73,7.42h3.44V.25Z" fill="#91867e"></path></g></svg> 