<?xml version="1.0" encoding="UTF-8"?> <svg xmlns="http://www.w3.org/2000/svg" id="Layer_1" data-name="Layer 1" viewBox="0 0 220 66.76"><g id="charity-navigator"><path d="M69.93,22.87H67.49a9.27,9.27,0,0,0-.22-1.57.82.82,0,0,0-.55-.55,2.69,2.69,0,0,0-.92-.18,2.14,2.14,0,0,0-1,.21,1.22,1.22,0,0,0-.53.67,3.43,3.43,0,0,0-.14,1.06v4.43a6.12,6.12,0,0,0,.11,1.21,1,1,0,0,0,.61.78,2.17,2.17,0,0,0,1.14.28h.28l.32-.06a1.22,1.22,0,0,0,.84-.82,4.69,4.69,0,0,0,.11-1v-.91H70v.63a11.13,11.13,0,0,1-.14,1.16,2.39,2.39,0,0,1-.21.75,2.38,2.38,0,0,1-1.14,1.49,5.42,5.42,0,0,1-1.41.57,6,6,0,0,1-1.27.16,5.36,5.36,0,0,1-2.2-.43,3.17,3.17,0,0,1-1.4-1.21,4,4,0,0,1-.54-2.26v-4.6a7.93,7.93,0,0,1,.22-2.06,2,2,0,0,1,1-1.26,4.73,4.73,0,0,1,1.52-.64,7.16,7.16,0,0,1,1.46-.15,6.62,6.62,0,0,1,.88.06,4.06,4.06,0,0,1,.84.18,4,4,0,0,1,1.56.81,2,2,0,0,1,.71,1.48l.07.67v1.09Z" fill="#fff"></path><polygon points="73.01 18.73 75.45 18.73 75.45 23.48 78.6 23.48 78.6 18.73 81.04 18.73 81.04 31.03 78.6 31.03 78.6 25.56 75.45 25.56 75.45 31.03 73.01 31.03 73.01 18.73" fill="#fff"></polygon><path d="M85.54,18.73h3.64L91.79,31h-2.5l-.71-3h-2.4l-.6,3H83.11Zm1,7.37h1.73l-.92-5.23Z" fill="#fff" fill-rule="evenodd"></path><path d="M98,26.17h-1.6V31H93.78V18.73H96.6a16.68,16.68,0,0,1,3,.24,2.54,2.54,0,0,1,1.68,1,8,8,0,0,1,.45.73,3.9,3.9,0,0,1,.26.64,1.56,1.56,0,0,1,.11.57,3.11,3.11,0,0,1,0,.61,3.61,3.61,0,0,1-.19,1.12,1.91,1.91,0,0,1-.59.93l-.26.42a.89.89,0,0,1-.3.22,2.12,2.12,0,0,1,.89,1.15,5.62,5.62,0,0,1,.22,1.77v1.37a5.94,5.94,0,0,0,.23,1.51H99.34c0-.21-.08-.45-.11-.72a5.35,5.35,0,0,1-.08-.7l-.07-1.36a3.4,3.4,0,0,0-.31-1.54.92.92,0,0,0-.86-.51m-1.6-2.1H98a1.32,1.32,0,0,0,.67-.15,1.7,1.7,0,0,0,.57-.56,1.43,1.43,0,0,0,.22-.85,1.75,1.75,0,0,0-.3-1.09,1.59,1.59,0,0,0-.9-.52,4.18,4.18,0,0,0-.71-.09H96.31Z" fill="#fff" fill-rule="evenodd"></path><rect x="104.53" y="18.73" width="2.44" height="12.3" fill="#fff"></rect><polygon points="109.16 20.74 109.16 18.75 116.76 18.75 116.76 20.74 114.22 20.74 114.22 31.02 111.77 31.02 111.77 20.74 109.16 20.74" fill="#fff"></polygon><polygon points="118.83 18.73 121.46 18.73 123.36 23.77 125.24 18.73 127.85 18.73 124.57 26.65 124.57 31.03 122.13 31.03 122.13 26.68 118.83 18.73" fill="#fff"></polygon><polygon points="137.36 22.95 137.36 31.02 134.92 31.02 134.92 18.71 137.64 18.71 141 26.79 141 18.71 143.44 18.71 143.44 31.02 140.75 31.05 137.36 22.95" fill="#fff"></polygon><path d="M148.22,18.73h3.64L154.47,31H152l-.7-3h-2.41l-.6,3h-2.48Zm1,7.37H151L150,20.87Z" fill="#fff" fill-rule="evenodd"></path><polygon points="155.56 18.73 158.2 18.73 160.12 28 161.96 18.73 164.54 18.73 161.78 31.03 158.49 31.03 155.56 18.73" fill="#fff"></polygon><rect x="166.36" y="18.73" width="2.44" height="12.3" fill="#fff"></rect><path d="M177.34,26.07h-2v-2h4.42v7l-1.83-1.1a1.91,1.91,0,0,1-.73.76,2.37,2.37,0,0,1-1.15.46l-.74.06a4.68,4.68,0,0,1-1-.1q-.66-.21-1.29-.48a2.7,2.7,0,0,1-1.3-1.24,4.66,4.66,0,0,1-.4-2.05V22.72a7.93,7.93,0,0,1,.22-2.06,2.11,2.11,0,0,1,1-1.24,5.27,5.27,0,0,1,1.63-.66,6.75,6.75,0,0,0,.72-.12,4.71,4.71,0,0,1,.74-.06,7.35,7.35,0,0,1,2.18.39,2.34,2.34,0,0,1,1.65,1.39c.11.33.19.6.26.85a1.53,1.53,0,0,1,.08.6V22.9h-2.54a5.19,5.19,0,0,0-.14-1.42,1,1,0,0,0-.63-.7,2.85,2.85,0,0,0-1-.18,2.26,2.26,0,0,0-1,.21,1.19,1.19,0,0,0-.55.7,3.34,3.34,0,0,0-.15,1.09V27a5.72,5.72,0,0,0,.11,1.24,1.09,1.09,0,0,0,.63.68,2.17,2.17,0,0,0,1.14.28,2.67,2.67,0,0,0,.88-.19.87.87,0,0,0,.63-.72,5.46,5.46,0,0,0,.11-1V26.07Z" fill="#fff"></path><path d="M184.14,18.73h3.64L190.41,31h-2.52l-.7-3h-2.41l-.6,3h-2.47Zm1,7.37h1.73L186,20.87Z" fill="#fff" fill-rule="evenodd"></path><polygon points="191.32 20.74 191.32 18.75 198.92 18.75 198.92 20.74 196.38 20.74 196.38 31.02 193.94 31.02 193.94 20.74 191.32 20.74" fill="#fff"></polygon><path d="M209.21,26.77a5.49,5.49,0,0,1-.85,3.23c-.57.79-1.67,1.19-3.3,1.19s-2.75-.4-3.32-1.22a5.55,5.55,0,0,1-.81-3.2V23c0-1.72.35-2.91,1.1-3.48a4.59,4.59,0,0,1,3-.87c1.63,0,2.73.39,3.3,1.14a5.45,5.45,0,0,1,.85,3.21v3.84Zm-2.48-4.38a2.26,2.26,0,0,0-.36-1.43,1.61,1.61,0,0,0-1.34-.45,1.78,1.78,0,0,0-1.34.42,2.48,2.48,0,0,0-.35,1.43v4.9a2.36,2.36,0,0,0,.35,1.44,1.65,1.65,0,0,0,1.34.43,1.58,1.58,0,0,0,1.31-.46,2.21,2.21,0,0,0,.35-1.41V22.39Z" fill="#fff" fill-rule="evenodd"></path><path d="M216,26.17h-1.52V31H212V18.73h2.65a14.3,14.3,0,0,1,2.85.23,2.49,2.49,0,0,1,1.62,1,6.06,6.06,0,0,1,.43.73c.1.24.18.42.25.64a1.85,1.85,0,0,1,.1.57,3.11,3.11,0,0,1,0,.61,3.59,3.59,0,0,1-.18,1.12,1.85,1.85,0,0,1-.57.93l-.24.42a.77.77,0,0,1-.29.22,2.13,2.13,0,0,1,.85,1.15,6.27,6.27,0,0,1,.22,1.77v1.37A6.39,6.39,0,0,0,219.9,31h-2.65a5.78,5.78,0,0,0-.11-.72,4.86,4.86,0,0,1-.07-.7L217,28.21a3.72,3.72,0,0,0-.25-1.51.85.85,0,0,0-.81-.51m-1.52-2.1H216a1.21,1.21,0,0,0,.64-.15,1.58,1.58,0,0,0,.53-.56,1.5,1.5,0,0,0,.22-.85,1.81,1.81,0,0,0-.29-1.09,1.49,1.49,0,0,0-.85-.52,3.73,3.73,0,0,0-.67-.09h-1.13Z" fill="#fff" fill-rule="evenodd"></path><polygon points="142.58 39.99 142.58 38 137.79 38 137.79 49.15 139.89 49.15 139.89 44.38 141.85 44.38 141.85 42.39 139.89 42.39 139.89 39.99 142.58 39.99" fill="#fff"></polygon><path d="M147.39,41.51a2.4,2.4,0,0,0-3.36-.39,2.11,2.11,0,0,0-.4.39,3.22,3.22,0,0,0-.49,2v2.76a3.28,3.28,0,0,0,.49,2,2.39,2.39,0,0,0,3.76,0,3.28,3.28,0,0,0,.5-2V43.55A3.33,3.33,0,0,0,147.39,41.51Zm-2.32,1.75c0-.85.26-.85.44-.85s.43,0,.43.85V46.6c0,.85-.26.85-.43.85s-.44,0-.44-.85Z" fill="#fff"></path><path d="M151.92,40.66l-.06,6.23c-.36.43-.57.49-.73.49s-.08,0-.1-.09a1.63,1.63,0,0,1,0-.54l.06-6.1H149l-.07,6.43c0,.93,0,1.28.32,1.67a1.38,1.38,0,0,0,1.07.48h0a2.25,2.25,0,0,0,1.51-.62v.52h2.07l.09-8.45Z" fill="#fff"></path><path d="M158.36,40.61a1.87,1.87,0,0,0-1.46.69v-.58H155v8.43h1.94V44.09c0-.72.09-1,.28-1.18a.88.88,0,0,1,.69-.31,1.21,1.21,0,0,1,.43.07l.32.1V40.59Z" fill="#fff"></path><path d="M165.41,42.66c-1.16-1.07-1.34-1.43-1.34-2s.24-.8.64-.8.58.07.68,1.07v.25l2-.29v-.24c-.26-2.3-1.58-2.78-2.65-2.78A2.67,2.67,0,0,0,162,40.47c0,.1,0,.2,0,.3,0,1.24.49,2.15,1.9,3.45a8.79,8.79,0,0,1,1.22,1.22,1.74,1.74,0,0,1,.36,1c0,.57-.27.91-.72.91s-.84-.16-.89-1.42v-.29l-2,.36v.22a2.89,2.89,0,0,0,2.63,3.11h.28a2.77,2.77,0,0,0,2.78-2.75,2.18,2.18,0,0,0,0-.25C167.55,45,167.13,44.24,165.41,42.66Z" fill="#fff"></path><path d="M172.18,42.52v-1.8H171V38.54H169v2.18h-.88v1.8H169v4.25a2.6,2.6,0,0,0,.4,1.8,1.73,1.73,0,0,0,1.46.69,4,4,0,0,0,1.09-.15h.19V47.19l-.31.08a1.21,1.21,0,0,1-.38,0c-.34,0-.51,0-.51-1.11V42.47Z" fill="#fff"></path><path d="M177.92,48.89a14.2,14.2,0,0,1-.14-2.84V43.41a2.94,2.94,0,0,0-.44-2,2,2,0,0,0-1.75-.8c-1.47,0-2.39.94-2.51,2.62v.27h2v-.24c0-.85.25-.85.42-.85s.34,0,.34.84v.36c-2.15,1.23-2.92,2-2.92,3.52,0,1.29.61,2.13,1.55,2.13a2.15,2.15,0,0,0,1.46-.69.94.94,0,0,0,.06.37v.21h2Zm-2.08-3.54v1.54c-.16.26-.4.55-.69.55s-.25-.31-.25-.58a1.83,1.83,0,0,1,.94-1.54Z" fill="#fff"></path><path d="M182.39,40.61a1.89,1.89,0,0,0-1.47.69v-.58H179v8.43h1.93V44.09c0-.72.1-1,.28-1.18a.88.88,0,0,1,.7-.31,1.29,1.29,0,0,1,.43.07l.32.1V40.59Z" fill="#fff"></path><path d="M191.29,42V41.2a3.67,3.67,0,0,0-.4-2.06,2.75,2.75,0,0,0-4.41-.36c-.6.72-.69,1.35-.69,3v3.61c0,1.64.09,2.26.69,3a2.61,2.61,0,0,0,2.06.94,2.56,2.56,0,0,0,2.35-1.43,4.07,4.07,0,0,0,.4-2.2V44.9h-2.12v.25a13.06,13.06,0,0,1,0,1.52c-.05.27-.26.66-.6.66a.55.55,0,0,1-.54-.44,6.63,6.63,0,0,1-.1-1.6V41.9a8.9,8.9,0,0,1,.07-1.55q.13-.51.57-.51a.62.62,0,0,1,.62.61V42Z" fill="#fff"></path><path d="M196.59,41a1.39,1.39,0,0,0-1.12-.45,2.39,2.39,0,0,0-1.63.64V38h-2.19V49.17h2.19V42.9c.39-.44.61-.5.78-.5s.09,0,.11.09a3.67,3.67,0,0,1,0,.53v6.12h2.19V42.72C197,41.79,196.9,41.43,196.59,41Z" fill="#fff"></path><path d="M203,48.89a13.5,13.5,0,0,1-.14-2.84V43.41a2.88,2.88,0,0,0-.45-2,2,2,0,0,0-1.71-.78c-1.47,0-2.39.94-2.51,2.62v.27h2v-.24c0-.85.25-.85.42-.85s.33,0,.33.84v.36c-2.14,1.23-2.91,2-2.91,3.52,0,1.29.6,2.13,1.54,2.13a2.17,2.17,0,0,0,1.47-.69,1.11,1.11,0,0,0,.05.37v.21H203Zm-2.09-3.54v1.54c-.16.26-.39.55-.68.55s-.25-.31-.25-.58a1.84,1.84,0,0,1,.93-1.54Z" fill="#fff"></path><path d="M207.46,40.61a1.87,1.87,0,0,0-1.46.69v-.58h-1.94v8.43H206V44.09c0-.72.09-1,.28-1.18a.88.88,0,0,1,.7-.31,1.23,1.23,0,0,1,.42.07l.32.1V40.59Z" fill="#fff"></path><rect x="208.12" y="38" width="1.94" height="1.94" fill="#fff"></rect><rect x="208.12" y="40.72" width="1.94" height="8.44" fill="#fff"></rect><path d="M214.81,42.52v-1.8h-1.2V38.54h-1.93v2.18h-.88v1.8h.88v4.25a2.6,2.6,0,0,0,.4,1.8,1.73,1.73,0,0,0,1.46.69,4,4,0,0,0,1.09-.15h.18V47.19l-.31.08a1.15,1.15,0,0,1-.37,0c-.35,0-.52,0-.52-1.11V42.47Z" fill="#fff"></path><path d="M218,40.72l-.63,3.84-.65-3.84h-2L216.5,49a2.54,2.54,0,0,1-.21.66.76.76,0,0,1-.77.39H215v1.84h.21a3.29,3.29,0,0,0,.54,0,2.26,2.26,0,0,0,1.83-.65c.38-.42.45-.67.76-2.17L220,40.67Z" fill="#fff"></path><polygon points="80.45 37.37 82.14 42.23 87.28 42.33 83.19 45.44 84.67 50.34 80.45 47.41 76.24 50.34 77.73 45.44 73.64 42.33 78.77 42.23 80.45 37.37" fill="#ffe900"></polygon><polygon points="95.02 37.37 96.71 42.23 101.84 42.33 97.74 45.44 99.24 50.34 95.02 47.41 90.81 50.34 92.3 45.44 88.21 42.33 93.33 42.23 95.02 37.37" fill="#ffe900"></polygon><polygon points="109.59 37.37 111.27 42.23 116.4 42.33 112.31 45.44 113.8 50.34 109.59 47.41 105.37 50.34 106.86 45.44 102.76 42.33 107.9 42.23 109.59 37.37" fill="#ffe900"></polygon><polygon points="124.15 37.37 125.84 42.23 130.97 42.33 126.88 45.44 128.36 50.34 124.15 47.41 119.93 50.34 121.42 45.44 117.33 42.33 122.47 42.23 124.15 37.37" fill="#ffe900"></polygon><rect x="61.69" y="15.04" width="158.22" height="1" fill="#fff"></rect><path d="M65.13,33.76H55A22.37,22.37,0,0,0,33,11.9v-5l2.54,3L32.65,0,29.79,9.86,32.24,7v5a22.37,22.37,0,0,0-22,21.86H0v1H10.28A22.39,22.39,0,0,0,32.23,56.67V66.76H33V56.59a22.38,22.38,0,0,0,22-21.84h165v-1ZM33,3.23l1.15,4.14L33,6Zm-.85,9.67L29.3,26.21l-11.4-7.4A21.25,21.25,0,0,1,32.13,12.9ZM30.87,35.68,19.49,47l6-9ZM15.61,33.75l9.33-1.94,4.78,1.94Zm3.91-12.7,9.41,6.08,2.28,5.36ZM17,19.74l7.45,11.19L11.29,33.64A21.35,21.35,0,0,1,17,19.74ZM11.29,34.92l13.2,2.78L17.06,48.82A21.32,21.32,0,0,1,11.29,34.92ZM18,49.74l11.27-7.29L32,55.56A21.27,21.27,0,0,1,18,49.74ZM32.22,52,30.15,41.9l2.09-5Zm15.1-33.18-11.4,7.49L33.06,12.9A21.27,21.27,0,0,1,47.32,18.78Zm-11.79,16H49.68l-9.35,2Zm10,12.71-9.17-6L34.07,36ZM34.17,33l12-12-6.23,9.6ZM33,16,35.26,26.6,33,32Zm.22,39.62L36,42.44l11.22,7.34a21.26,21.26,0,0,1-14,5.79Zm15-6.71L40.84,37.64,54,34.92a21.23,21.23,0,0,1-5.79,14Zm-7.46-18,7.35-11.32A21.26,21.26,0,0,1,54,33.64Z" fill="#fff"></path></g></svg> 