<?xml version="1.0" encoding="UTF-8"?> <svg xmlns="http://www.w3.org/2000/svg" viewBox="0 0 202.57 52.69"><defs><style>.cls-1{fill:#fff;}.cls-2{fill:#0051a5;stroke:#fff;stroke-width:1.52px;}.cls-3{fill:#fedf01;}</style></defs><g id="Layer_2" data-name="Layer 2"><g id="Layer_1-2" data-name="Layer 1"><path class="cls-1" d="M11.32,22.69v2.89H5.75S0,25.63,0,18.55s5.7-7,5.75-7h5.57v2.88H6.56s-3.24-.19-3.24,4.1,3.24,4.14,3.24,4.14Z"></path><rect class="cls-1" x="12.88" y="14.31" width="3.12" height="11.27"></rect><polygon class="cls-1" points="17.25 14.31 17.25 16.92 20.5 16.92 20.5 25.58 23.63 25.58 23.63 16.92 26.47 16.92 29.03 20.87 29.03 25.58 32.16 25.58 32.16 20.87 36.45 14.31 33.1 14.31 30.59 18.15 28.09 14.31 17.25 14.31"></polygon><polygon class="cls-1" points="39.51 25.58 39.51 11.62 43.43 11.62 49.1 20.9 49.1 11.62 52.34 11.62 52.34 25.58 48.38 25.58 42.75 16.56 42.75 25.58 39.51 25.58"></polygon><path class="cls-1" d="M53.37,25.58l4.5-11.27H61l4.49,11.27H62.25l-.71-1.9H57.32l-.71,1.9Zm4.8-4.34h2.52L59.43,18Z"></path><path class="cls-1" d="M105.26,25.58l4.49-11.27h3.13l4.49,11.27h-3.24l-.71-1.9H109.2l-.71,1.9Zm4.79-4.34h2.52L111.31,18Z"></path><path class="cls-1" d="M142.81,25.58l4.49-11.27h3.13l4.49,11.27h-3.23l-.72-1.9h-4.22l-.71,1.9Zm4.79-4.34h2.52L148.86,18Z"></path><polygon class="cls-1" points="64.34 14.31 64.34 16.92 67.59 16.92 67.59 25.58 70.71 25.58 70.71 16.92 73.95 16.92 73.95 14.31 64.34 14.31"></polygon><rect class="cls-1" x="75.44" y="14.31" width="3.12" height="11.27"></rect><polygon class="cls-1" points="101.07 14.31 104.18 14.31 104.18 25.58 100.81 25.58 96.72 18.9 96.72 25.58 93.62 25.58 93.62 14.31 97.07 14.31 101.07 20.96 101.07 14.31"></polygon><polygon class="cls-1" points="163.32 14.31 166.43 14.31 166.43 25.58 163.05 25.58 158.98 18.9 158.98 25.58 155.88 25.58 155.88 14.31 159.31 14.31 163.32 20.96 163.32 14.31"></polygon><polygon class="cls-1" points="168.4 14.31 168.4 25.58 171.49 25.58 171.49 20.9 175.68 25.58 179.38 25.58 174.1 19.77 179.21 14.31 175.5 14.31 171.49 18.6 171.49 14.31 168.4 14.31"></polygon><path class="cls-1" d="M138.74,11.65c2.25,0,3.56,1.38,3.56,3.83a2.44,2.44,0,0,1-1.73,2.64c1.41.29,2.08,1.63,2.08,3.27,0,4.19-3.35,4.19-3.81,4.19h-8.31V11.65Zm-5,11.3H138s1.31,0,1.31-1.61S138,19.73,138,19.73h-4.32Zm0-5.61h4.12s1.32,0,1.32-1.61-1.32-1.62-1.32-1.62h-4.12Z"></path><polygon class="cls-1" points="121.55 22.95 121.55 14.31 118.43 14.31 118.43 25.58 126.92 25.58 126.92 22.95 121.55 22.95"></polygon><path class="cls-1" d="M184.13,2.37h0L188.66,0h0l.1,0a.18.18,0,0,1,.18.18l.37,8L186.7,9.41,196,13.25l-.07,1.25-6.41-2.56.14,3.39-2.29,1.2L195.72,20l0,1-5.9-2.25.12,2.9h0l-2,1.13L195.47,26l0,1-5.37-2.2.09,2.33h0l-1.77,1,6.9,3.13,0,.85-5-2.21.09,2.13h0l-1.56,1,6.25,3.07,0,.72-4.55-2.14.08,1.8h0l-1.37.85L195,40.25l0,.68-4.21-2.07.11,2.47v0a.55.55,0,0,1-.19.4h0l-1.78,1.35a.17.17,0,0,1-.1,0,.14.14,0,0,1-.14-.14h0L183.93,2.73v0A.38.38,0,0,1,184.13,2.37Z"></path><path class="cls-1" d="M195.27,46.82h0l2-38.68h0a.65.65,0,0,1,.26-.42l4.69-2.95h0l.12,0a.2.2,0,0,1,.18.2h0L197.9,44.78h0a.57.57,0,0,1-.15.3l-2.21,1.85,0,0h0a.19.19,0,0,1-.1,0h0a.16.16,0,0,1-.16-.15Z"></path><path class="cls-1" d="M199.65,42a1.08,1.08,0,0,1,1.07-1.1,1.09,1.09,0,1,1,0,2.18h0A1.07,1.07,0,0,1,199.65,42Zm2,0a.91.91,0,0,0-.91-.93.92.92,0,1,0,0,1.84h0A.92.92,0,0,0,201.65,42Zm-.4.58h-.2l-.36-.55h-.2v.55h-.16V41.39h.52c.21,0,.42.06.42.31s-.16.32-.37.33Zm-.56-.71c.15,0,.41,0,.41-.16s-.16-.14-.29-.14h-.32v.3Z"></path><path class="cls-1" d="M86.18,14.14h0c-1.4,0-6,0-6,5.8v0c0,5.71,4.61,5.81,6,5.81h0c1.42,0,6-.1,6-5.81v0C92.19,14.17,87.59,14.14,86.18,14.14ZM89,20v0c0,3.39-2.06,3.46-2.78,3.46S83.4,23.36,83.4,20v0c0-3.42,2-3.47,2.78-3.47S89,16.53,89,20Z"></path><path class="cls-1" d="M25.73,47l-.66-2.16H22.41L21.74,47H20.33L23,38.73h1.58L27.23,47Zm-1.94-6.87h0c-.17.6-.87,3.08-1.05,3.56h2C24.69,43.48,23.84,40.42,23.79,40.09Z"></path><path class="cls-1" d="M32.83,47,31,43.1a23.74,23.74,0,0,1-1-2.43l0,0c.06.69.07,1.48.08,2.29L30,47H28.7V38.74h1.54l2,4a14.77,14.77,0,0,1,.85,2.11l0,0c0-.42-.12-1.59-.12-2.35l0-3.75h1.3V47Z"></path><path class="cls-1" d="M44.08,47l-.71-1.27a8.71,8.71,0,0,0-1.41-2,.68.68,0,0,0-.53-.26V47H40.09V38.74h2.5c1.85,0,2.68,1.07,2.68,2.35a2.11,2.11,0,0,1-2,2.26A6.23,6.23,0,0,1,44.49,45l1.22,2Zm-1.9-7.11h-.75v2.6h.7c.71,0,1.1-.09,1.34-.34a1.37,1.37,0,0,0,.37-1c0-.83-.45-1.26-1.66-1.26Z"></path><path class="cls-1" d="M49.82,47H47.43V38.74H49.6a3.54,3.54,0,0,1,2.17.41,1.82,1.82,0,0,1,.92,1.61,1.8,1.8,0,0,1-1.41,1.8A2,2,0,0,1,53,44.64C53,46.26,51.9,47,49.82,47Zm.78-7a2.29,2.29,0,0,0-.78-.1h-1V42.1h1.13c.5,0,.75,0,1-.3a1.27,1.27,0,0,0,.33-.82,1.07,1.07,0,0,0-.66-1Zm.15,3.35a2.43,2.43,0,0,0-.76-.08h-1.2v2.61H50a1.3,1.3,0,0,0,1.49-1.33,1.19,1.19,0,0,0-.77-1.2Z"></path><path class="cls-1" d="M58.3,47.09a3.19,3.19,0,0,1-2.6-1.18A4.52,4.52,0,0,1,54.76,43a5.13,5.13,0,0,1,.55-2.49,3.37,3.37,0,0,1,3-1.89,3.27,3.27,0,0,1,2.05.64l-.63.9a2.37,2.37,0,0,0-1.4-.46,1.8,1.8,0,0,0-1.64,1,4.26,4.26,0,0,0-.43,2.16,4.87,4.87,0,0,0,.32,2A1.92,1.92,0,0,0,58.42,46a2.21,2.21,0,0,0,1.48-.52l.64.86A3.53,3.53,0,0,1,58.3,47.09Z"></path><path class="cls-1" d="M68.65,47.09a3.18,3.18,0,0,1-2.6-1.18A4.52,4.52,0,0,1,65.11,43a5.23,5.23,0,0,1,.54-2.49,3.38,3.38,0,0,1,3-1.89,3.26,3.26,0,0,1,2,.64l-.63.9a2.37,2.37,0,0,0-1.4-.46,1.8,1.8,0,0,0-1.64,1,4.26,4.26,0,0,0-.43,2.16,4.87,4.87,0,0,0,.32,2A1.92,1.92,0,0,0,68.77,46a2.21,2.21,0,0,0,1.48-.52l.64.86A3.53,3.53,0,0,1,68.65,47.09Z"></path><path class="cls-1" d="M75.44,47.09c-2.35,0-3.5-1.8-3.5-4.24,0-2.7,1.38-4.23,3.44-4.23,2.31,0,3.43,1.85,3.43,4.25C78.81,45.43,77.58,47.09,75.44,47.09Zm-.08-7.41c-1.38,0-1.9,1.12-1.9,3.09s.54,3.29,1.94,3.29c1.22,0,1.85-.9,1.85-3.12C77.25,40.94,76.84,39.68,75.36,39.68Z"></path><path class="cls-1" d="M87.52,47l-.38-5.09c0-.52-.06-1.18-.06-1.43-.06.26-.17.78-.32,1.32L85.26,47H84.1l-1.37-5c-.15-.55-.31-1.29-.35-1.57,0,.28,0,1.06-.09,1.57l-.36,5H80.59l.75-8.22h1.82l1.26,4.66c.19.69.26,1.15.31,1.4q.12-.7.3-1.38l1.3-4.69h1.83L88.88,47Z"></path><path class="cls-1" d="M93.8,43.83H92.41V47H91.06V38.74h2.19a3.47,3.47,0,0,1,2.08.4,2.29,2.29,0,0,1,1.13,2.06A2.52,2.52,0,0,1,93.8,43.83Zm.82-3.58a1.45,1.45,0,0,0-1.14-.4H92.41v2.89h1.07A1.28,1.28,0,0,0,95,41.29,1.45,1.45,0,0,0,94.62,40.25Z"></path><path class="cls-1" d="M102.14,47l-.66-2.16H98.82L98.15,47H96.74l2.7-8.23H101L103.64,47Zm-1.94-6.87h0c-.17.6-.87,3.08-1,3.56h2C101.09,43.48,100.25,40.42,100.2,40.09Z"></path><path class="cls-1" d="M109.24,47,107.4,43.1a26.17,26.17,0,0,1-1.05-2.43l0,0c.06.69.07,1.48.08,2.29l0,4h-1.34V38.74h1.54l2,4a16,16,0,0,1,.84,2.11l0,0c0-.42-.12-1.59-.12-2.35l0-3.75h1.31V47Z"></path><path class="cls-1" d="M115.93,43.65V47h-1.42V43.64l-2.58-4.9h1.65l1.23,2.58a9.85,9.85,0,0,1,.44,1.06c0-.12.26-.63.45-1L117,38.73h1.59Z"></path><path class="cls-2" d="M14.32,49.76a1,1,0,0,1-.71,1.1,17.63,17.63,0,0,1-12.07,0,1,1,0,0,1-.71-1.1V34.2H14.32Z"></path><path class="cls-3" d="M4.45,43.68C2.58,42.51,2,42,1.91,41.23a2,2,0,0,1,.09-.6l-.17-.12a1.58,1.58,0,0,0-.24.78,1.86,1.86,0,0,0,.32,1.05A4.42,4.42,0,0,0,3.13,43.5a4.62,4.62,0,0,1,1.52,1.87h.1V44.6a5,5,0,0,1,2.3,2h.1C7,45.67,6.43,44.92,4.45,43.68Z"></path><path class="cls-3" d="M13.05,46.65h-.13c0-.7-.64-.88-1.3-.88H9.53a3.24,3.24,0,0,1,.05,1.12h-.1a4.27,4.27,0,0,0-2.32-3.17v.71h-.1a5.12,5.12,0,0,0-1.74-1.91h0l-.55-.4v.78H4.66a5.29,5.29,0,0,0-1.56-2,4.27,4.27,0,0,1-1.33-1.67,2.21,2.21,0,0,1-.15-.88A1.54,1.54,0,0,1,2.29,37v.29a1.38,1.38,0,0,0-.28.88,1.94,1.94,0,0,0,.21.89,10.58,10.58,0,0,0,3,2.6c3,2,3.65,2.39,4.15,3.47a2.6,2.6,0,0,1,.16.47l2.32-.36.24,0a2.55,2.55,0,0,0,.68-.67l-1.17-.09c-.06.13-.12.24-.17.33h-.1c0-.12.06-.23.09-.35l-.3,0v-.06l.32,0a5.88,5.88,0,0,0,.1-.94L10,43.3v.43H10c0-.15-.06-.3-.08-.44l-.32,0v-.09l.31,0a6.26,6.26,0,0,1,0-1.06l-.86,0a1.63,1.63,0,0,1,.11.23,2.9,2.9,0,0,1,.08,1.4h-.1a3.07,3.07,0,0,0-.23-.95,4.08,4.08,0,0,0-1.66-1.63v.71h-.1a3.69,3.69,0,0,0-2.14-2A1.77,1.77,0,0,1,3.8,37.91l.3.18a1.36,1.36,0,0,0,1.36,1.27,5.77,5.77,0,0,0,1.09-.12,2.61,2.61,0,0,1,1.35-.05v-.48H7.6a1,1,0,0,1-.66.21,1,1,0,0,1-1-.89V38c0-.65.56-.76,1-.76h.78a.34.34,0,0,0,.23-.08A.24.24,0,0,0,8,37a1.67,1.67,0,0,0,0-.31v-.48H5.92V37l-.78-.3v-.2h.38v-.33H4.11v-.69H3.58A.56.56,0,0,0,3,36c0,.34.13.62.47.62h.06V37H3.48a1,1,0,0,1-1.06-1v0a1.13,1.13,0,0,1,1.17-1.1h1v.69h4v1a4.93,4.93,0,0,1,0,.55.59.59,0,0,1-.26.45,1,1,0,0,1-.6.13c-.09,0-.38,0-.71,0s-.58.14-.6.31a.17.17,0,0,0,0,.1.9.9,0,0,1,.85-.18c.6.19.78.21,1.08,0l0,.07a.68.68,0,0,1-.18.2h.29v1.56l.91-.54h2.54l1.25.65a.42.42,0,0,1,.24.32.63.63,0,0,1-.07.38l-.48.78a2.74,2.74,0,0,1-.16,3.85l-.16.13a1.39,1.39,0,0,1,.75.55ZM7.4,38.2a.71.71,0,0,0-.76.16.78.78,0,0,0,.37.06A.51.51,0,0,0,7.4,38.2Zm-.2,2.26,1-.6a1.44,1.44,0,0,0-.67-.16,8.23,8.23,0,0,0-1.21.19c.13.09.57.38.88.57Zm4.47.06.14-.19L11.6,40l0-.06.61.32-.14.41a1.92,1.92,0,0,1,.31.18l.39-.64-1-.52H9.55L7.73,40.82a4.79,4.79,0,0,1,.88.75,2.69,2.69,0,0,1,2.18-1.16,2.81,2.81,0,0,1,.87.11Zm-.18,2.54a5.52,5.52,0,0,0-.11-.91l-1.18,0a7.51,7.51,0,0,0-.17,1Zm.4-.88a4.83,4.83,0,0,1,0,.85L13.08,43a2,2,0,0,0-.22-.75Zm-.6-.39a3.91,3.91,0,0,0-.35-.85H10.8l-.25,0a5.56,5.56,0,0,0-.29.9Zm.33-.71c.08.23.14.45.2.69l.71,0a2.28,2.28,0,0,0-.91-.65Zm1.31,3a2,2,0,0,0,.16-.65l-1.22-.07a4.69,4.69,0,0,1-.24.89Zm-3-3a2.33,2.33,0,0,0-.95.78l.84,0A4.55,4.55,0,0,1,9.93,41.13Z"></path><path class="cls-1" d="M8.38,48.45A.74.74,0,0,0,9,47.73c0-.36-.15-.76-1.21-.76H6v0a.45.45,0,0,1,.19.11.76.76,0,0,1,.17.52v2.69H7.88c.82,0,1.41-.32,1.41-1A.86.86,0,0,0,8.38,48.45ZM7.61,47.3c.38,0,.64.08.64.49s-.34.54-.74.54H7.17v-1Zm0,2.72H7.17V48.64h.46c.63,0,.87.19.87.66S8.18,50,7.65,50Z"></path><path class="cls-1" d="M4.71,50.34h1L4.45,48.75c.49-.13.86-.4.86-.89S5,47,4.06,47H2.19v0a.49.49,0,0,1,.2.11.84.84,0,0,1,.17.59v2.63h.78V48.85h.28Zm-1.37-3h.52c.43,0,.66.12.66.59s-.3.65-.78.65H3.32Z"></path><path class="cls-1" d="M12.44,47.44a.62.62,0,0,1,.26.27h0l.17-.58a1.9,1.9,0,0,0-1-.21A1.68,1.68,0,0,0,10,48.67a1.61,1.61,0,0,0,1.82,1.71,1.86,1.86,0,0,0,1.12-.26v-.39A1.35,1.35,0,0,1,12,50a1.19,1.19,0,0,1-1.25-1.35c0-1,.43-1.36,1-1.36A1.16,1.16,0,0,1,12.44,47.44Z"></path><path class="cls-1" d="M15.41,51.66a.85.85,0,1,1,.84-.85h0a.84.84,0,0,1-.83.84Zm0-1.52a.68.68,0,0,0,0,1.36.68.68,0,1,0,0-1.36Zm.06.2a.27.27,0,0,1,.28.24v0a.25.25,0,0,1-.21.27l0,0a3.26,3.26,0,0,1,.23.36h-.23l-.09-.15c-.09-.17-.12-.22-.16-.23h0v.39h-.19v-.94Zm-.16.41h.06c.08,0,.12,0,.14,0a.1.1,0,0,0,0-.09.11.11,0,0,0-.07-.12h-.17Z"></path></g></g></svg> 