<?xml version="1.0" encoding="UTF-8"?> <svg xmlns="http://www.w3.org/2000/svg" viewBox="0 0 110.93 55"><defs><style>.cls-1{fill:#fefefe;}</style></defs><g id="Layer_2" data-name="Layer 2"><g id="Layer_1-2" data-name="Layer 1"><g id="first-5-la"><path class="cls-1" d="M15,52.66h-.84V47.59H15Zm-.42-6.12A.56.56,0,0,1,14,46v0h0a.56.56,0,0,1,.56-.56h0a.58.58,0,0,1,.59.52h0a.56.56,0,0,1-.56.56h0Z"></path><path class="cls-1" d="M19.41,47.59l-.95,2.88c-.15.51-.31,1-.45,1.5h0l-.48-1.5-1-2.88h-.88l1.81,5.07h1l1.79-5.07Z"></path><path class="cls-1" d="M21.76,52.66h-.85V47.59h.85Zm-.41-6.12a.55.55,0,0,1-.59-.51h0a.55.55,0,0,1,.54-.56h0a.58.58,0,0,1,.59.52h0a.56.56,0,0,1-.55.56Z"></path><path class="cls-1" d="M25.64,47.46A2.37,2.37,0,0,0,24,48.3h0l-.07-.73h-.7v5.07H24V49c.51-.52.85-.79,1.37-.79s1,.42,1,1.36v3.1h.79V49.48c0-1.3-.47-2-1.53-2"></path><path class="cls-1" d="M30.2,55c-1.28,0-2.08-.52-2.08-1.36a1.46,1.46,0,0,1,.73-1.18h0a1,1,0,0,1-.44-.82,1.19,1.19,0,0,1,.55-1h0a1.74,1.74,0,0,1-.64-1.41,1.8,1.8,0,0,1,1.77-1.82h.12a1.94,1.94,0,0,1,.71.13h1.75v.71H31.62a1.48,1.48,0,0,1,.43,1,1.75,1.75,0,0,1-1.69,1.78H30.2a1.7,1.7,0,0,1-.76-.18.81.81,0,0,0-.32.62c0,.37.29.55.9.55h1c1.18,0,1.76.38,1.76,1.18S31.86,55,30.2,55Zm-.82-2.36a1.09,1.09,0,0,0-.52.86c0,.54.56.89,1.47.89s1.59-.53,1.59-1-.32-.63-1-.63H30a2.35,2.35,0,0,1-.65-.06Zm.82-4.58a1.1,1.1,0,0,0-1.08,1.1v.08a1.11,1.11,0,0,0,1,1.18h.05a1.11,1.11,0,0,0,1.08-1.14h0v-.11A1.06,1.06,0,0,0,30.32,48h0Z"></path><path class="cls-1" d="M37.45,49.63l1.69-2H38.2l-2.14,2.68h0v-5h-.84v7.43h.84V51.33L37,50.22l1.48,2.44h.93Z"></path><path class="cls-1" d="M40.85,52.66H40V47.59h.85Zm-.41-6.12a.55.55,0,0,1-.59-.51h0a.58.58,0,0,1,.52-.59h.07A.58.58,0,0,1,41,46h0a.53.53,0,0,1-.51.55h-.05Z"></path><path class="cls-1" d="M44,52.79c-1.31,0-2.09-1-2.09-2.65A2.43,2.43,0,0,1,44,47.47h0a2.09,2.09,0,0,1,1.42.59V45.23h.86v7.43h-.71l-.07-.59h0A2.27,2.27,0,0,1,44,52.79Zm.24-4.6c-.83,0-1.45.82-1.45,1.94s.52,1.94,1.38,1.94a1.66,1.66,0,0,0,1.29-.7V48.71a1.75,1.75,0,0,0-1.18-.53Z"></path><path class="cls-1" d="M49.3,49.74c-.57-.22-1.18-.4-1.18-.88s.3-.73.92-.73a1.9,1.9,0,0,1,1.18.45l.4-.54a2.48,2.48,0,0,0-1.56-.58c-1.08,0-1.73.63-1.73,1.44s.79,1.18,1.5,1.46,1.18.45,1.18,1-.33.79-1,.79a2.23,2.23,0,0,1-1.49-.6l-.42.58a3,3,0,0,0,1.87.69c1.18,0,1.84-.69,1.84-1.52S50,50,49.29,49.74"></path><path class="cls-1" d="M55.84,52a2.16,2.16,0,0,1-.57.14c-.58,0-.78-.36-.78-1V48.3h1.36v-.71H54.49V46.17h-.71l-.1,1.42h-.79v.71h.74v2.79c0,1,.37,1.7,1.44,1.7A3,3,0,0,0,56,52.6Z"></path><path class="cls-1" d="M59.17,47.47a2.33,2.33,0,0,0-1.68.83V45.23h-.85v7.43h.85V49c.51-.52.86-.79,1.37-.79s1,.42,1,1.36v3.1h.85V49.48c0-1.3-.47-2-1.53-2"></path><path class="cls-1" d="M64,52.79a2.38,2.38,0,0,1-1.71-.7,2.79,2.79,0,0,1-.71-2,2.44,2.44,0,0,1,2.17-2.67h.1c1.25,0,2,.9,2,2.36a3.69,3.69,0,0,1,0,.47H62.46A1.68,1.68,0,0,0,64,52.09h.16a2.23,2.23,0,0,0,1.25-.39l.29.56A2.86,2.86,0,0,1,64,52.79Zm-.14-4.65a1.58,1.58,0,0,0-1.45,1.61h2.7a1.87,1.87,0,0,0-.41-1.29,1.14,1.14,0,0,0-.8-.32Z"></path><path class="cls-1" d="M70.8,52.79a2.32,2.32,0,0,1-1.45-.62h0l-.07.49h-.69V45.23h.85v3A2.37,2.37,0,0,1,71,47.47c1.25,0,2,1,2,2.59a3,3,0,0,1-.65,2A2,2,0,0,1,70.8,52.79Zm0-4.6a2,2,0,0,0-1.34.69v2.66a1.89,1.89,0,0,0,1.18.53c.86,0,1.43-.81,1.43-2S71.67,48.19,70.8,48.19Z"></path><path class="cls-1" d="M76.07,52.79a2.38,2.38,0,0,1-1.71-.7,2.81,2.81,0,0,1-.69-2,2.43,2.43,0,0,1,2.16-2.67h.09c1.26,0,2,.9,2,2.36v.47H74.51A1.66,1.66,0,0,0,76,52h.14a2.23,2.23,0,0,0,1.25-.39l.31.56A3,3,0,0,1,76.07,52.79ZM76,48.14a1.6,1.6,0,0,0-1.46,1.61h2.69a1.78,1.78,0,0,0-.41-1.29A1.19,1.19,0,0,0,76,48.14Z"></path><path class="cls-1" d="M80.49,49.74c-.57-.22-1.12-.4-1.12-.88s.29-.73.92-.73a1.9,1.9,0,0,1,1.18.45l.4-.54a2.49,2.49,0,0,0-1.63-.58,1.52,1.52,0,0,0-1.71,1.31s0,.08,0,.13c0,.81.79,1.18,1.5,1.46s1.18.45,1.18,1-.35.79-1,.79a2.23,2.23,0,0,1-1.47-.6l-.43.58a3.06,3.06,0,0,0,1.88.69c1.18,0,1.84-.69,1.84-1.52s-.8-1.26-1.53-1.53"></path><path class="cls-1" d="M85.24,52a2.19,2.19,0,0,1-.56.14c-.58,0-.78-.36-.78-1V48.3h1.36v-.71H83.9V46.17h-.72l-.1,1.42h-.79v.71H83v2.79c0,1,.36,1.7,1.44,1.7a3,3,0,0,0,.93-.19Z"></path><path class="cls-1" d="M89.49,49.74c-.58-.22-1.18-.4-1.18-.88s.28-.73.92-.73a1.9,1.9,0,0,1,1.18.45l.41-.54a2.54,2.54,0,0,0-1.56-.58c-1.09,0-1.73.63-1.73,1.44s.78,1.18,1.5,1.46,1.18.45,1.18,1-.33.79-1,.79a2.18,2.18,0,0,1-1.47-.6l-.43.58a3,3,0,0,0,1.86.69c1.18,0,1.86-.69,1.86-1.52s-.81-1.3-1.53-1.56"></path><path class="cls-1" d="M94.24,52a2.16,2.16,0,0,1-.57.14c-.58,0-.78-.36-.78-1V48.3h1.36v-.71H92.89V46.17h-.71L92,47.59h-.79v.71H92v2.79c0,1,.35,1.7,1.44,1.7a2.9,2.9,0,0,0,.92-.19Z"></path><path class="cls-1" d="M96.12,52.79a1.37,1.37,0,0,1-1.47-1.26v0h0a.43.43,0,0,1,0-.16c0-1.09.92-1.66,3.09-1.9a1.4,1.4,0,0,0-.32-1,.92.92,0,0,0-.72-.27,2.64,2.64,0,0,0-1.5.54l-.34-.59a3.76,3.76,0,0,1,2-.66c1.18,0,1.75.72,1.75,2.09v3.11H98l-.07-.6h0A2.65,2.65,0,0,1,96.12,52.79ZM97.74,50c-1.58.2-2.25.58-2.25,1.27a.76.76,0,0,0,.68.83h.2a2,2,0,0,0,1.37-.67Z"></path><path class="cls-1" d="M102.13,47.46a1.73,1.73,0,0,0-1.44,1h0l-.07-.92h-.71v5.07h.85v-3.2c.34-.86.85-1.18,1.27-1.18a1.18,1.18,0,0,1,.49.08l.07-.33.08-.36v-.07a1.39,1.39,0,0,0-.53-.1"></path><path class="cls-1" d="M105.52,52a2.16,2.16,0,0,1-.57.14c-.59,0-.78-.36-.78-1V48.3h1.36v-.71h-1.36V46.17h-.71l-.1,1.42h-.79v.71h.74v2.79c0,1,.37,1.7,1.44,1.7a3,3,0,0,0,.93-.19Z"></path><path class="cls-1" d="M74.34,16.52A8.26,8.26,0,1,1,82.6,8.26a8.26,8.26,0,0,1-8.26,8.26ZM76.17,4.38l-2,7.25h1.75l.35-1.27h1.81l.31,1.26h1.84l-2-7.24Zm-6.88.07v7.18h4.25l.29-1.51H71V4.45Zm8.47,4.47H76.58L77,7.22l.18-.93h0l.17.92.39,1.71Z"></path><path class="cls-1" d="M56.2,16.52a8.26,8.26,0,1,1,8.26-8.26h0A8.26,8.26,0,0,1,56.2,16.52ZM51.48,9a1.25,1.25,0,0,0-.5.11.5.5,0,0,0-.29.52,1.17,1.17,0,0,0,1,1,2.61,2.61,0,0,1,1.71,1.18c.21.26.47.59.85,1a2.06,2.06,0,0,0,1.63.67h1.45a2,2,0,0,0,1.3-.36A6.44,6.44,0,0,0,60,9.5a1.5,1.5,0,0,1,0-.3,8,8,0,0,1,1-1.57,5.9,5.9,0,0,0,.69-1.09.49.49,0,0,0,0-.47.6.6,0,0,0-.49-.2.57.57,0,0,0-.39.16,1.7,1.7,0,0,1-.35.45c-.32.41-.76,1-1,1.25a.62.62,0,0,1-.37.24.17.17,0,0,1-.14-.07.39.39,0,0,1,0-.3,28.89,28.89,0,0,0,.81-3.69.52.52,0,0,0-.2-.4A.57.57,0,0,0,59,3.22a.55.55,0,0,0-.53.41c0,.18-.19.7-.33,1.27-.19.75-.4,1.6-.5,1.87a2,2,0,0,0-.1.35v.17c0,.06-.11.13-.17.13s-.22-.35-.23-.6-.5-3.45-.5-3.48-.16-.63-.65-.63h0c-.57,0-.58.81-.58,1a22.3,22.3,0,0,0,.33,2.57c.07.46.14.83.14.93a.48.48,0,0,1-.08.31.11.11,0,0,1-.08,0c-.09,0-.21-.11-.3-.26s-.24-.52-.43-.92c-.34-.74-.78-1.65-1-2a.89.89,0,0,0-.69-.52A.5.5,0,0,0,53,3.9c-.35.23-.23.58-.12.93V4.9A17.46,17.46,0,0,0,54.1,7.59,1.87,1.87,0,0,1,54,9.71a.22.22,0,0,1-.19.06,3.2,3.2,0,0,1-1.18-.48A2.12,2.12,0,0,0,51.5,9Z"></path><path class="cls-1" d="M38.31,16.52a8.26,8.26,0,1,1,8.26-8.26h0A8.26,8.26,0,0,1,38.31,16.52ZM35.4,3.86l-2,.66V6.1h1.66v6.08h2.13V3.86ZM38,8.58V9.63h.12a6.76,6.76,0,0,0,.9,0h.06c.91,0,1.42-.4,1.42-1.11A1.29,1.29,0,0,0,40,7.46L39.21,7h0c-.07-.07-.1-.1-.1-.14a.38.38,0,0,1,.15,0H40.4V5.68H39.29c-.86,0-1.35.37-1.35,1.06a1.28,1.28,0,0,0,.52,1.11l.73.48h.07c.1.08.13.11.13.15s-.07,0-.23,0h-1Zm2.93-2.93V6.74h.87V9.62H43V6.7h.86V5.62Z"></path><path class="cls-1" d="M9.64,22a5,5,0,0,1,1.66.37l1-4.23a10.66,10.66,0,0,0-3.54-.6c-4.92,0-6.59,3.19-6.59,6.77v.24L0,24.7V29H2.19V41.22H7.92V29H10.7V24.5H7.92v-.4c0-1.58.66-2.08,1.72-2.08"></path><path class="cls-1" d="M19.25,41.22H13.52V24.45h5.73ZM16.39,22.34a3,3,0,0,1-3.19-2.69v-.2a3,3,0,0,1,3-2.89h.19a3,3,0,0,1,3.18,2.7v.17a3,3,0,0,1-3,2.91h-.18Z"></path><path class="cls-1" d="M31.36,24.05a5.6,5.6,0,0,0-4.72,3.29h-.13l-.4-2.89H21.45V41.22h5.69V31.9a3.81,3.81,0,0,1,3.54-2.81,7.33,7.33,0,0,1,1.86.27l.94-5A5.2,5.2,0,0,0,31.41,24"></path><path class="cls-1" d="M42.48,31c-1.66-.61-3.13-.94-3.13-1.81,0-.68.5-1,1.47-1a6.16,6.16,0,0,1,3.38,1.42l2.53-3.42A9.73,9.73,0,0,0,40.62,24C36.69,24,34,26.17,34,29.46c0,2.75,2.27,4.19,4.19,5,1.66.67,3.2,1.07,3.2,1.94,0,.66-.47,1-1.67,1a7.11,7.11,0,0,1-4-1.68l-2.53,3.54a11,11,0,0,0,6.44,2.36c4.66,0,7.08-2.42,7.08-5.57s-2.26-4.28-4.21-5"></path><path class="cls-1" d="M58.81,36.86a4.06,4.06,0,0,1-1.46.27c-1.06,0-2-.6-2-2.44V29h3.79V24.5h-3.8V20.08H50.62L50,24.45l-2.53.25V29h2.19v5.84c0,4.09,1.81,6.84,6.13,6.84a12.33,12.33,0,0,0,3.91-.6Z"></path><path class="cls-1" d="M75.43,27.54a5.67,5.67,0,0,0-2,.33l.27-3.08h7.59V20H68.77l-.53,10.94,2.47,1.61a4.48,4.48,0,0,1,2.92-1,2.61,2.61,0,0,1,2.86,2.33h0a3.38,3.38,0,0,1,0,.45c0,1.87-1.12,2.75-3.12,2.75a6.71,6.71,0,0,1-4.27-2l-2.52,3.56a10.29,10.29,0,0,0,7.64,3c4.3,0,8-2.75,8-7.52,0-4.49-3.13-6.57-6.78-6.57"></path><path class="cls-1" d="M95,36.93a1.57,1.57,0,0,1-.61.07c-.4,0-.93-.34-.93-1.47V17.83H87.71V35.32c0,3.75,1.26,6.3,5.12,6.3a7,7,0,0,0,2.75-.4Z"></path><path class="cls-1" d="M101.23,41.63A4.75,4.75,0,0,1,97.57,40a5.41,5.41,0,0,1-1.32-3.54c0-3.54,2.79-5.45,9-6.1-.13-1.18-.85-1.75-2.36-1.75A9,9,0,0,0,98.7,30l-2-3.78A13.88,13.88,0,0,1,104,24c4.59,0,6.91,2.64,6.91,7.86v9.31h-4.72l-.39-1.61h-.14A6.63,6.63,0,0,1,101.23,41.63Zm4.06-7.85c-2.36.36-3.54,1.1-3.54,2.21,0,.79.54,1.18,1.54,1.18a2.64,2.64,0,0,0,2-1.18Z"></path><path class="cls-1" d="M10.73,49.11v.72h1.44v1.8a2,2,0,0,1-1.24.4c-1.45,0-2.26-1.09-2.26-2.81s.88-2.78,2.26-2.78a1.88,1.88,0,0,1,1.44.64l.49-.55a2.56,2.56,0,0,0-1.94-.84c-1.82,0-3.14,1.34-3.14,3.54s1.27,3.54,3.05,3.54A3.08,3.08,0,0,0,13,52V49.11Z"></path></g></g></g></svg> 