<?xml version="1.0" encoding="UTF-8"?> <svg xmlns="http://www.w3.org/2000/svg" viewBox="0 0 112.54 86.83"><defs><style>.d{fill:#fff;}</style></defs><g id="a"></g><g id="b"><g id="c"><g><g><path class="d" d="M39.37,23.47l.67,.08c.3,.03,.33,.29,.33,.45v.79h-3.09v-.79c0-.16,.03-.41,.33-.45l.67-.08v-.68h-4.01v.68l.67,.08c.3,.03,.33,.29,.33,.45v2.6c0,.16-.03,.41-.33,.45l-.67,.08v.68h4.01v-.68l-.67-.08c-.3-.03-.33-.29-.33-.45v-.79h3.09v.79c0,.16-.03,.41-.33,.45l-.67,.08v.68h4.01v-.68l-.67-.08c-.3-.03-.33-.29-.33-.45v-2.6c0-.16,.03-.41,.33-.45l.67-.08v-.68h-4.01v.68Z"></path><path class="d" d="M66.14,22.79h-4.96v.68l.59,.06c.21,.03,.35,.12,.35,.41v2.65c0,.16-.03,.41-.33,.45l-.67,.08v.68h5.02c1.79,0,3.27-.72,3.27-2.5s-1.48-2.5-3.27-2.5Zm-.36,4.05h-1.68v-3.09h1.68c.99,0,1.33,.47,1.33,1.54s-.34,1.54-1.33,1.54Z"></path><path class="d" d="M77.84,27.05c-.32-.04-.42-.24-.52-.39l-2.31-3.53c-.17-.25-.29-.33-.53-.33h-3.8v.68l.91,.1c.12,.01,.3,.19,.16,.42l-1.71,2.78c-.07,.11-.16,.24-.35,.27l-.68,.08v.68h3.21v-.68l-.55-.06c-.24-.03-.36-.19-.24-.38l.26-.42h3.08l.23,.35c.2,.3-.05,.43-.27,.45l-.57,.06v.68h4.34v-.68l-.64-.07Zm-5.62-1.67l.95-1.54,1.01,1.54h-1.96Z"></path><path class="d" d="M57.6,23.47l.67,.08c.3,.03,.33,.29,.33,.45v2.5l-2.65-3.5c-.12-.16-.22-.21-.51-.21h-3.44v.68l.67,.08c.3,.03,.33,.29,.33,.45v2.6c0,.16-.03,.41-.33,.45l-.67,.08v.68h3.21v-.68l-.67-.08c-.3-.03-.33-.29-.33-.45v-2.51l2.65,3.5c.12,.16,.22,.21,.51,.21h2.44v-3.8c0-.16,.03-.41,.33-.45l.67-.08v-.68h-3.21v.68Z"></path><path class="d" d="M47.69,22.62c-3.26,0-4.1,1.43-4.1,2.68s.84,2.68,4.1,2.68,4.1-1.43,4.1-2.68-.84-2.68-4.1-2.68Zm0,4.4c-1.26,0-1.79-.53-1.79-1.72s.53-1.72,1.79-1.72,1.79,.53,1.79,1.72-.53,1.72-1.79,1.72Z"></path></g><g><path class="d" d="M61.83,1.65c-.55,2.46-.77,3.59-1.22,5.38-.43,1.71-.76,3.3-1.34,4.07-.59,.78-1.37,.95-1.9,1.01-.28,.03-.47,.04-1.07,.05-.6,0-.8-.02-1.07-.05-.53-.06-1.31-.23-1.9-1.01-.58-.77-.91-2.36-1.34-4.07-.45-1.78-.67-2.91-1.22-5.38,0,0-.55,.02-.79,.04-.33,.02-.59,.05-.87,.09,0,0,.32,5.06,.46,7.21,.15,2.26,.42,6.06,.66,8.93,0,0,.46,.07,1.23,.12,.81,.05,1.17,.05,1.17,.05,.33-1.26,.74-3.02,1.21-3.77,.38-.61,.96-.67,1.3-.72,.52-.07,.96-.08,1.16-.08h0c.2,0,.64,0,1.16,.08,.33,.04,.92,.11,1.29,.72,.47,.75,.88,2.5,1.21,3.77,0,0,.36,0,1.17-.05,.77-.04,1.23-.12,1.23-.12,.25-2.87,.51-6.67,.66-8.93,.14-2.15,.46-7.21,.46-7.21-.28-.04-.54-.07-.87-.09-.24-.02-.79-.04-.79-.04Z"></path><path class="d" d="M68.21,4.64c-.33-3.22-2.47-3.89-4.36-4.21-.95-.16-2.64-.29-3.72-.34-.95-.06-3.17-.09-3.84-.09-.66,0-2.89,.03-3.84,.09-1.08,.04-2.77,.18-3.72,.34-1.88,.32-4.03,1-4.36,4.21-.09,.88-.11,2.02-.1,3.25,.03,2.04,.2,3.41,.3,4.37,.07,.65,.34,2.62,.69,3.64,.48,1.4,.91,1.8,1.43,2.22,.93,.76,2.47,.99,2.8,1.05,1.73,.31,5.24,.37,6.79,.37,1.55,0,5.06-.05,6.79-.37,.33-.06,1.86-.29,2.8-1.05,.51-.42,.94-.82,1.42-2.22,.35-1.02,.62-2.98,.69-3.64,.1-.95,.28-2.33,.3-4.37,.02-1.23,0-2.37-.1-3.25Zm-1.18,5.4c-.19,2.57-.42,4.11-.75,5.22-.29,.97-.64,1.63-1.16,2.1-.87,.78-2.06,.95-2.76,1.06-1.51,.22-4.06,.3-6.06,.3-2,0-4.55-.08-6.06-.3-.7-.1-1.89-.27-2.76-1.06-.52-.47-.87-1.12-1.16-2.1-.33-1.11-.56-2.65-.75-5.22-.11-1.55-.09-4.06,.08-5.41,.26-2.01,1.25-3.02,3.39-3.4,1-.18,2.34-.3,3.61-.37,1.02-.07,2.7-.1,3.64-.09,.94,0,2.62,.03,3.64,.09,1.27,.06,2.62,.19,3.61,.37,2.14,.38,3.14,1.39,3.39,3.4,.17,1.35,.2,3.86,.08,5.41Z"></path></g></g><rect class="d" x="39.33" y="33.08" width="34" height=".71"></rect><path class="d" d="M16.53,51.33c1.14,0,2.46-.72,2.46-2.15,0-1.55-1.3-1.94-2.71-2.38-1.47-.45-2.98-1.1-2.98-3.1,0-2.15,1.91-3.05,3.54-3.05,1.17,0,2.18,.39,2.76,.97,.16,.16,.19,.3,.19,.42,0,.28-.22,.52-.53,.52-.11,0-.25-.02-.5-.23-.53-.47-1.11-.72-1.96-.72-1.1,0-2.36,.66-2.36,2.08s1.17,1.77,2.41,2.18c1.57,.52,3.29,1.02,3.29,3.24s-1.86,3.2-3.62,3.2c-1.14,0-2.22-.38-3.04-1.16-.19-.19-.23-.36-.23-.5,0-.28,.22-.55,.55-.55,.13,0,.27,.03,.44,.2,.72,.72,1.46,1.03,2.3,1.03Z"></path><path class="d" d="M25.18,52.21c-2.27,0-3.9-1.64-3.9-3.85s1.63-3.85,3.9-3.85,3.92,1.64,3.92,3.85-1.63,3.85-3.92,3.85Zm0-6.81c-1.69,0-2.77,1.32-2.77,2.96s1.08,2.94,2.77,2.94,2.79-1.3,2.79-2.94-1.08-2.96-2.79-2.96Z"></path><path class="d" d="M30.44,46.48c0-3.37,2.47-5.83,5.78-5.83,1.35,0,2.69,.45,3.54,1.32,.17,.17,.2,.33,.2,.42,0,.3-.22,.55-.56,.55-.16,0-.33-.06-.56-.3-.55-.55-1.5-1-2.6-1-2.87,0-4.6,2.26-4.6,4.84s1.75,4.84,4.6,4.84c1.13,0,2.24-.41,2.99-1.3,.19-.22,.33-.28,.49-.28,.28,0,.52,.2,.52,.52,0,.13-.05,.27-.19,.42-.83,.94-2.1,1.63-3.82,1.63-3.35,0-5.78-2.46-5.78-5.83Z"></path><path class="d" d="M47.69,51.33c.02,.13,.03,.23,.03,.3,0,.33-.22,.5-.47,.5-.17,0-.44-.08-.5-.53-.03-.25-.05-.49-.05-.77h-.03c-.67,.97-1.49,1.38-2.66,1.38-1.11,0-2.54-.6-2.54-2.22,0-2.26,2.49-2.46,5.17-2.46v-.23c0-1.27-.69-1.9-1.96-1.9-.69,0-1.28,.19-1.88,.61-.14,.09-.27,.14-.38,.14-.23,0-.42-.17-.42-.44,0-.14,.06-.27,.2-.39,.55-.47,1.49-.81,2.58-.81,1.58,0,2.85,.88,2.85,2.66v3.21c0,.42,.02,.67,.05,.96Zm-1.36-2.98c-1.74,0-3.76,.19-3.76,1.58,0,1.05,.89,1.39,1.72,1.39,1.5,0,2.35-1.13,2.35-2.43v-.55h-.31Z"></path><path class="d" d="M49.6,40.65c0-.5,.36-.58,.53-.58s.53,.08,.53,.58v10.9c0,.5-.36,.58-.53,.58s-.53-.08-.53-.58v-10.9Z"></path><path class="d" d="M64.35,46.77h-6.05v4.73c0,.53-.38,.63-.56,.63s-.56-.09-.56-.63v-10.05c0-.53,.38-.63,.56-.63s.56,.09,.56,.63v4.29h6.05v-4.29c0-.53,.38-.63,.56-.63s.56,.09,.56,.63v10.05c0,.53-.38,.63-.56,.63s-.56-.09-.56-.63v-4.73Z"></path><path class="d" d="M71.02,52.21c-2.27,0-3.9-1.64-3.9-3.85s1.63-3.85,3.9-3.85,3.92,1.64,3.92,3.85-1.63,3.85-3.92,3.85Zm0-6.81c-1.69,0-2.77,1.32-2.77,2.96s1.08,2.94,2.77,2.94,2.79-1.3,2.79-2.94-1.08-2.96-2.79-2.96Z"></path><path class="d" d="M77.46,45.94h.03c.41-.85,1.47-1.44,2.51-1.44,1.86,0,2.79,1.21,2.79,3.02v4.03c0,.5-.36,.58-.53,.58s-.53-.08-.53-.58v-3.59c0-1.53-.45-2.57-1.99-2.57-1.13,0-2.22,.91-2.22,2.87v3.29c0,.5-.36,.58-.53,.58s-.53-.08-.53-.58v-5.25c0-.28-.02-.92-.03-1.17-.02-.47,.34-.55,.5-.55,.17,0,.5,.06,.52,.55l.03,.81Z"></path><path class="d" d="M91.37,52.13c-.17,0-.53-.08-.53-.58v-.77h-.03c-.63,.92-1.72,1.43-2.77,1.43-2.29,0-3.79-1.69-3.79-3.85s1.5-3.85,3.79-3.85c1.05,0,2.15,.5,2.77,1.46h.03v-5.31c0-.5,.36-.58,.53-.58s.53,.08,.53,.58v10.9c0,.5-.36,.58-.53,.58Zm-3.23-.83c1.64,0,2.82-1.27,2.82-2.94s-1.17-2.96-2.82-2.96c-1.77,0-2.77,1.33-2.77,2.96s1,2.94,2.77,2.94Z"></path><path class="d" d="M99.6,51.33c.02,.13,.03,.23,.03,.3,0,.33-.22,.5-.47,.5-.17,0-.44-.08-.5-.53-.03-.25-.05-.49-.05-.77h-.03c-.67,.97-1.49,1.38-2.66,1.38-1.11,0-2.54-.6-2.54-2.22,0-2.26,2.49-2.46,5.17-2.46v-.23c0-1.27-.69-1.9-1.96-1.9-.69,0-1.28,.19-1.88,.61-.14,.09-.27,.14-.38,.14-.23,0-.42-.17-.42-.44,0-.14,.06-.27,.2-.39,.55-.47,1.49-.81,2.58-.81,1.58,0,2.85,.88,2.85,2.66v3.21c0,.42,.02,.67,.05,.96Zm-1.36-2.98c-1.74,0-3.76,.19-3.76,1.58,0,1.05,.89,1.39,1.72,1.39,1.5,0,2.35-1.13,2.35-2.43v-.55h-.31Z"></path><g><path class="d" d="M.67,68.42c-.45,0-.67-.22-.67-.67v-9.74c0-.45,.22-.67,.67-.67H3.68c2.77,0,5.83,1.85,5.83,5.54s-3.05,5.54-5.83,5.54H.67Zm.45-1H3.37c3.34,0,4.95-2.26,4.95-4.54s-1.61-4.54-4.95-4.54H1.13v9.08Z"></path><path class="d" d="M11.98,65.04c.03,1.47,1.17,2.66,2.68,2.66,1.02,0,1.69-.49,2.11-.96,.14-.16,.28-.2,.41-.2,.25,0,.49,.17,.49,.47,0,.11-.03,.23-.16,.38-.74,.81-1.72,1.22-2.85,1.22-2.18,0-3.79-1.64-3.79-3.85s1.61-3.85,3.7-3.85,3.51,1.43,3.51,3.59c0,.36-.19,.55-.58,.55h-5.51Zm5.01-.85c-.06-1.38-.91-2.4-2.43-2.4-1.43,0-2.47,1.14-2.57,2.4h5Z"></path><path class="d" d="M25.44,67.73c.02,.13,.03,.23,.03,.3,0,.33-.22,.5-.47,.5-.17,0-.44-.08-.5-.53-.03-.25-.05-.49-.05-.77h-.03c-.67,.97-1.49,1.38-2.66,1.38-1.11,0-2.54-.6-2.54-2.22,0-2.26,2.49-2.46,5.17-2.46v-.23c0-1.27-.69-1.9-1.96-1.9-.69,0-1.28,.19-1.88,.61-.14,.09-.27,.14-.38,.14-.23,0-.42-.17-.42-.44,0-.14,.06-.27,.2-.39,.55-.47,1.49-.81,2.58-.81,1.58,0,2.85,.88,2.85,2.66v3.21c0,.42,.02,.67,.05,.96Zm-1.36-2.98c-1.74,0-3.76,.19-3.76,1.58,0,1.05,.89,1.39,1.72,1.39,1.5,0,2.35-1.13,2.35-2.43v-.55h-.31Z"></path><path class="d" d="M27.27,57.05c0-.5,.36-.58,.53-.58s.53,.08,.53,.58v10.9c0,.5-.36,.58-.53,.58s-.53-.08-.53-.58v-10.9Z"></path><path class="d" d="M31.29,65.04c.03,1.47,1.17,2.66,2.68,2.66,1.02,0,1.69-.49,2.11-.96,.14-.16,.28-.2,.41-.2,.25,0,.49,.17,.49,.47,0,.11-.03,.23-.16,.38-.74,.81-1.72,1.22-2.85,1.22-2.18,0-3.79-1.64-3.79-3.85s1.61-3.85,3.7-3.85,3.51,1.43,3.51,3.59c0,.36-.19,.55-.58,.55h-5.51Zm5.01-.85c-.06-1.38-.91-2.4-2.43-2.4-1.43,0-2.47,1.14-2.57,2.4h5Z"></path><path class="d" d="M39.74,68.53c-.17,0-.53-.08-.53-.58v-5.25c0-.28-.02-.92-.03-1.17-.02-.47,.34-.55,.5-.55,.17,0,.5,.06,.52,.55l.03,.81h.03c.41-.85,1.32-1.44,2.35-1.44,.17,0,.34,.02,.45,.06,.23,.09,.3,.28,.3,.42,0,.34-.23,.52-.58,.52-.16,0-.25-.02-.36-.02-1.13,0-2.15,.81-2.15,2.77v3.29c0,.5-.36,.58-.53,.58Z"></path><path class="d" d="M46.75,61.8c-.77,0-1.55,.33-1.55,1.14,0,.69,.55,1,1.75,1.25,1.72,.36,2.54,1,2.54,2.15,0,1.68-1.41,2.27-2.76,2.27-.97,0-1.88-.33-2.54-.99-.17-.17-.2-.36-.2-.44,0-.28,.2-.5,.5-.5,.14,0,.28,.06,.45,.23,.45,.49,1.06,.78,1.77,.78,.91,0,1.72-.33,1.72-1.28,0-.77-.77-1.08-2.16-1.41-.86-.2-2.1-.58-2.1-1.97,0-1.49,1.28-2.13,2.62-2.13,.83,0,1.66,.31,2.22,.88,.19,.19,.2,.34,.2,.42,0,.27-.2,.49-.49,.49-.13,0-.27-.05-.41-.2-.47-.5-1.02-.69-1.58-.69Z"></path></g><g><path class="d" d="M65.46,63.7h-5.18v3.95c0,.94-.66,1.11-.99,1.11s-.99-.17-.99-1.11v-9.15c0-.94,.66-1.11,.99-1.11s.99,.17,.99,1.11v3.51h5.18v-3.51c0-.94,.66-1.11,.99-1.11s.99,.17,.99,1.11v9.15c0,.94-.66,1.11-.99,1.11s-.99-.17-.99-1.11v-3.95Z"></path><path class="d" d="M70.63,65.46c.08,1.06,1.05,1.85,2.15,1.85,.78,0,1.25-.25,1.72-.64,.27-.22,.44-.27,.64-.27,.42,0,.75,.3,.75,.75,0,.16-.06,.44-.31,.67-.74,.7-1.58,1.02-2.79,1.02-2.32,0-4.04-1.49-4.04-3.93s1.71-4.03,3.98-4.03c1.82,0,3.29,1.03,3.59,3.24,.02,.16,.03,.27,.03,.39,0,.66-.36,.94-.99,.94h-4.73Zm3.85-1.35c0-.97-.55-1.82-1.77-1.82-1.11,0-2,.77-2.08,1.82h3.85Z"></path><path class="d" d="M77.83,57.69c0-.89,.63-1.05,.94-1.05s.94,.16,.94,1.05v10.02c0,.89-.63,1.05-.94,1.05s-.94-.16-.94-1.05v-10.02Z"></path><path class="d" d="M86.02,68.84c-1.05,0-2-.47-2.49-1.22h-.03v3.85c0,.89-.63,1.05-.94,1.05s-.94-.16-.94-1.05v-9.51c0-.85,.61-1,.89-1,.3,0,.91,.16,.91,1v.19h.05c.38-.6,1.22-1.27,2.6-1.27,2.15,0,3.65,1.72,3.65,3.95s-1.41,4.01-3.7,4.01Zm-.38-6.42c-1.38,0-2.21,1.27-2.21,2.44s.83,2.41,2.21,2.41c1.46,0,2.16-1.27,2.16-2.44s-.7-2.41-2.16-2.41Z"></path><path class="d" d="M91.12,62.61c-.72,0-.85-.5-.85-.75s.13-.75,.85-.75h.72v-1.11c0-1.8,.7-3.4,2.88-3.4,.78,0,1.19,.27,1.19,.83,0,.42-.28,.77-.88,.77-1.02,0-1.32,.64-1.32,1.69v1.22h1.03c.72,0,.85,.5,.85,.75s-.13,.75-.85,.75h-1.03v5.11c0,.89-.63,1.05-.94,1.05s-.94-.16-.94-1.05v-5.11h-.72Z"></path><path class="d" d="M103.65,67.78c0,.85-.61,.99-.89,.99s-.89-.14-.89-.99v-.36h-.03c-.33,.75-1.22,1.43-2.33,1.43-1.96,0-2.77-1.5-2.77-3.04v-3.79c0-.89,.63-1.05,.94-1.05s.94,.16,.94,1.05v3.26c0,.89,.2,2,1.41,2s1.75-1.03,1.75-2.04v-3.23c0-.89,.63-1.05,.94-1.05s.94,.16,.94,1.05v5.76Z"></path><path class="d" d="M105.34,57.69c0-.89,.63-1.05,.94-1.05s.94,.16,.94,1.05v10.02c0,.89-.63,1.05-.94,1.05s-.94-.16-.94-1.05v-10.02Z"></path><path class="d" d="M110.62,56.86c1.06,0,1.92,.85,1.92,1.91s-.86,1.89-1.92,1.89-1.92-.83-1.92-1.89,.86-1.91,1.92-1.91Zm0,3.52c.89,0,1.61-.73,1.61-1.61s-.72-1.61-1.61-1.61-1.61,.72-1.61,1.61,.72,1.61,1.61,1.61Zm-.75-2.47c0-.15,.08-.23,.23-.23h.53c.4,0,.8,.17,.8,.63,0,.31-.19,.51-.5,.58l.46,.68c.03,.05,.04,.09,.04,.13,0,.11-.08,.19-.18,.19-.06,0-.13-.02-.19-.12l-.52-.84h-.28v.75c0,.18-.13,.21-.19,.21s-.19-.03-.19-.21v-1.77Zm.7,.71c.22,0,.47-.06,.47-.32,0-.24-.23-.29-.43-.29h-.35v.61h.31Z"></path></g><g><path class="d" d="M19.05,83.55c-.37,0-.75,.16-.75,.55,0,.33,.26,.48,.84,.6,.83,.17,1.22,.48,1.22,1.03,0,.81-.68,1.09-1.32,1.09-.47,0-.9-.16-1.22-.47-.08-.08-.1-.17-.1-.21,0-.14,.1-.24,.24-.24,.07,0,.14,.03,.22,.11,.22,.23,.51,.38,.85,.38,.44,0,.83-.16,.83-.62,0-.37-.37-.52-1.04-.68-.41-.1-1.01-.28-1.01-.95,0-.72,.62-1.02,1.26-1.02,.4,0,.8,.15,1.07,.42,.09,.09,.1,.17,.1,.2,0,.13-.1,.23-.23,.23-.06,0-.13-.02-.2-.1-.23-.24-.49-.33-.76-.33Z"></path><path class="d" d="M22.9,86.83c-1.09,0-1.87-.79-1.87-1.85s.78-1.85,1.87-1.85,1.88,.79,1.88,1.85-.78,1.85-1.88,1.85Zm0-3.27c-.81,0-1.33,.63-1.33,1.42s.52,1.42,1.33,1.42,1.34-.62,1.34-1.42-.52-1.42-1.34-1.42Z"></path><path class="d" d="M28.44,85.97c.14,0,.23,.1,.23,.22,0,.05-.01,.12-.09,.2-.29,.29-.68,.44-1.18,.44-1.14,0-1.88-.79-1.88-1.85s.75-1.85,1.88-1.85c.4,0,.84,.14,1.14,.42,.07,.07,.1,.13,.1,.2,0,.13-.11,.23-.23,.23-.07,0-.12-.01-.26-.14-.15-.14-.41-.28-.74-.28-.82,0-1.35,.62-1.35,1.42s.52,1.42,1.34,1.42c.37,0,.62-.12,.84-.32,.08-.08,.14-.1,.2-.1Z"></path><path class="d" d="M32.25,86.4c0,.06,.02,.11,.02,.14,0,.16-.11,.24-.23,.24-.08,0-.21-.04-.24-.26-.02-.12-.02-.23-.02-.37h-.01c-.32,.47-.72,.66-1.28,.66-.53,0-1.22-.29-1.22-1.07,0-1.08,1.2-1.18,2.48-1.18v-.11c0-.61-.33-.91-.94-.91-.33,0-.62,.09-.9,.29-.07,.05-.13,.07-.18,.07-.11,0-.2-.08-.2-.21,0-.07,.03-.13,.1-.19,.26-.23,.72-.39,1.24-.39,.76,0,1.37,.42,1.37,1.28v1.54c0,.2,0,.32,.02,.46Zm-.65-1.43c-.84,0-1.81,.09-1.81,.76,0,.5,.43,.67,.83,.67,.72,0,1.13-.54,1.13-1.17v-.26h-.15Z"></path><path class="d" d="M33.4,81.27c0-.24,.17-.28,.26-.28s.26,.04,.26,.28v5.24c0,.24-.17,.28-.26,.28s-.26-.04-.26-.28v-5.24Z"></path><path class="d" d="M37.48,84.79c0-.74-.22-1.23-.96-1.23-.54,0-1.07,.44-1.07,1.38v1.58c0,.24-.17,.28-.26,.28s-.26-.04-.26-.28v-5.24c0-.24,.17-.28,.26-.28s.26,.04,.26,.28v2.52h.01c.19-.41,.68-.67,1.18-.67,.9,0,1.34,.58,1.34,1.45v1.93c0,.24-.17,.28-.26,.28s-.26-.04-.26-.28v-1.72Z"></path><path class="d" d="M40.79,86.83c-1.09,0-1.87-.79-1.87-1.85s.78-1.85,1.87-1.85,1.88,.79,1.88,1.85-.78,1.85-1.88,1.85Zm0-3.27c-.81,0-1.33,.63-1.33,1.42s.52,1.42,1.33,1.42,1.34-.62,1.34-1.42-.52-1.42-1.34-1.42Z"></path><path class="d" d="M43.96,83.81h.01c.2-.41,.71-.69,1.2-.69,.9,0,1.34,.58,1.34,1.45v1.93c0,.24-.17,.28-.26,.28s-.26-.04-.26-.28v-1.72c0-.74-.22-1.23-.96-1.23-.54,0-1.07,.44-1.07,1.38v1.58c0,.24-.17,.28-.26,.28s-.26-.04-.26-.28v-2.52c0-.14,0-.44-.01-.56,0-.23,.17-.26,.24-.26,.08,0,.24,.03,.25,.26v.39Z"></path><path class="d" d="M50.71,86.79c-.08,0-.26-.04-.26-.28v-.37h-.01c-.3,.44-.83,.68-1.33,.68-1.1,0-1.82-.81-1.82-1.85s.72-1.85,1.82-1.85c.5,0,1.03,.24,1.33,.7h.01v-2.55c0-.24,.17-.28,.26-.28s.26,.04,.26,.28v5.24c0,.24-.17,.28-.26,.28Zm-1.55-.4c.79,0,1.35-.61,1.35-1.42s-.56-1.42-1.35-1.42c-.85,0-1.33,.64-1.33,1.42s.48,1.42,1.33,1.42Z"></path><path class="d" d="M54.9,86.4c0,.06,.01,.11,.01,.14,0,.16-.11,.24-.23,.24-.08,0-.21-.04-.24-.26-.01-.12-.02-.23-.02-.37h-.01c-.32,.47-.72,.66-1.28,.66-.53,0-1.22-.29-1.22-1.07,0-1.08,1.2-1.18,2.48-1.18v-.11c0-.61-.33-.91-.94-.91-.33,0-.62,.09-.9,.29-.07,.05-.13,.07-.18,.07-.11,0-.2-.08-.2-.21,0-.07,.03-.13,.1-.19,.26-.23,.72-.39,1.24-.39,.76,0,1.37,.42,1.37,1.28v1.54c0,.2,0,.32,.02,.46Zm-.65-1.43c-.84,0-1.81,.09-1.81,.76,0,.5,.43,.67,.83,.67,.72,0,1.13-.54,1.13-1.17v-.26h-.15Z"></path><path class="d" d="M59.05,86.79c-.08,0-.26-.04-.26-.28v-.37h-.01c-.3,.44-.83,.68-1.33,.68-1.1,0-1.82-.81-1.82-1.85s.72-1.85,1.82-1.85c.5,0,1.03,.24,1.33,.7h.01v-2.55c0-.24,.17-.28,.26-.28s.26,.04,.26,.28v5.24c0,.24-.17,.28-.26,.28Zm-1.55-.4c.79,0,1.35-.61,1.35-1.42s-.56-1.42-1.35-1.42c-.85,0-1.33,.64-1.33,1.42s.48,1.42,1.33,1.42Z"></path><path class="d" d="M60.67,85.11c.01,.71,.56,1.28,1.29,1.28,.49,0,.81-.23,1.02-.46,.07-.07,.14-.1,.2-.1,.12,0,.23,.08,.23,.23,0,.05-.01,.11-.08,.18-.35,.39-.83,.59-1.37,.59-1.05,0-1.82-.79-1.82-1.85s.78-1.85,1.78-1.85,1.69,.68,1.69,1.72c0,.17-.09,.26-.28,.26h-2.65Zm2.41-.41c-.03-.66-.44-1.15-1.17-1.15-.68,0-1.19,.55-1.23,1.15h2.4Z"></path><path class="d" d="M67.21,86.4c0,.06,.02,.11,.02,.14,0,.16-.11,.24-.23,.24-.08,0-.21-.04-.24-.26-.01-.12-.02-.23-.02-.37h-.01c-.32,.47-.72,.66-1.28,.66-.53,0-1.22-.29-1.22-1.07,0-1.08,1.2-1.18,2.48-1.18v-.11c0-.61-.33-.91-.94-.91-.33,0-.62,.09-.9,.29-.07,.05-.13,.07-.18,.07-.11,0-.2-.08-.2-.21,0-.07,.03-.13,.1-.19,.26-.23,.72-.39,1.24-.39,.76,0,1.37,.42,1.37,1.28v1.54c0,.2,0,.32,.02,.46Zm-.65-1.43c-.84,0-1.81,.09-1.81,.76,0,.5,.43,.67,.83,.67,.72,0,1.13-.54,1.13-1.17v-.26h-.15Z"></path><path class="d" d="M68.2,81.27c0-.24,.17-.28,.26-.28s.26,.04,.26,.28v5.24c0,.24-.17,.28-.26,.28s-.26-.04-.26-.28v-5.24Z"></path><path class="d" d="M70.21,85.11c.02,.71,.56,1.28,1.29,1.28,.49,0,.81-.23,1.02-.46,.07-.07,.14-.1,.2-.1,.12,0,.23,.08,.23,.23,0,.05-.01,.11-.08,.18-.35,.39-.83,.59-1.37,.59-1.05,0-1.82-.79-1.82-1.85s.78-1.85,1.78-1.85,1.69,.68,1.69,1.72c0,.17-.09,.26-.28,.26h-2.65Zm2.41-.41c-.03-.66-.44-1.15-1.17-1.15-.68,0-1.19,.55-1.23,1.15h2.4Z"></path><path class="d" d="M74.34,86.79c-.08,0-.26-.04-.26-.28v-2.52c0-.14,0-.44-.01-.56,0-.23,.17-.26,.24-.26,.08,0,.24,.03,.25,.26v.39h.03c.2-.41,.63-.69,1.13-.69,.08,0,.17,0,.22,.03,.11,.05,.14,.14,.14,.2,0,.17-.11,.25-.28,.25-.08,0-.12,0-.17,0-.54,0-1.03,.39-1.03,1.33v1.58c0,.24-.17,.28-.26,.28Z"></path><path class="d" d="M77.78,83.55c-.37,0-.75,.16-.75,.55,0,.33,.26,.48,.84,.6,.83,.17,1.22,.48,1.22,1.03,0,.81-.68,1.09-1.32,1.09-.47,0-.9-.16-1.22-.47-.08-.08-.1-.17-.1-.21,0-.14,.1-.24,.24-.24,.07,0,.14,.03,.22,.11,.22,.23,.51,.38,.85,.38,.44,0,.83-.16,.83-.62,0-.37-.37-.52-1.04-.68-.41-.1-1.01-.28-1.01-.95,0-.72,.62-1.02,1.26-1.02,.4,0,.8,.15,1.07,.42,.09,.09,.1,.17,.1,.2,0,.13-.1,.23-.23,.23-.06,0-.13-.02-.2-.1-.23-.24-.49-.33-.76-.33Z"></path><path class="d" d="M80.32,86.78c-.24,0-.41-.2-.41-.41s.17-.41,.41-.41,.41,.2,.41,.41-.17,.41-.41,.41Z"></path><path class="d" d="M84.38,85.97c.14,0,.23,.1,.23,.22,0,.05-.01,.12-.09,.2-.29,.29-.68,.44-1.18,.44-1.14,0-1.88-.79-1.88-1.85s.75-1.85,1.88-1.85c.4,0,.84,.14,1.14,.42,.07,.07,.1,.13,.1,.2,0,.13-.11,.23-.23,.23-.07,0-.12-.01-.26-.14-.15-.14-.41-.28-.74-.28-.82,0-1.35,.62-1.35,1.42s.52,1.42,1.34,1.42c.37,0,.62-.12,.84-.32,.08-.08,.14-.1,.2-.1Z"></path><path class="d" d="M86.95,86.83c-1.09,0-1.87-.79-1.87-1.85s.78-1.85,1.87-1.85,1.88,.79,1.88,1.85-.78,1.85-1.88,1.85Zm0-3.27c-.81,0-1.33,.63-1.33,1.42s.52,1.42,1.33,1.42,1.34-.62,1.34-1.42-.52-1.42-1.34-1.42Z"></path><path class="d" d="M89.63,83.99c0-.14,0-.36-.01-.56,0-.23,.17-.26,.24-.26,.08,0,.24,.03,.25,.26v.39h.03c.2-.41,.65-.69,1.16-.69,.38,0,.85,.14,1.08,.75,.24-.48,.67-.75,1.23-.75,.9,0,1.34,.58,1.34,1.45v1.93c0,.24-.17,.28-.26,.28s-.26-.04-.26-.28v-1.72c0-.74-.25-1.23-.91-1.23-.74,0-1,.65-1,1.31v1.65c0,.24-.17,.28-.26,.28s-.26-.04-.26-.28v-1.83c0-.68-.17-1.13-.85-1.13-.49,0-1.02,.44-1.02,1.38v1.58c0,.24-.17,.28-.26,.28s-.26-.04-.26-.28v-2.52Z"></path></g></g></g></svg> 