<?xml version="1.0" encoding="UTF-8"?> <svg xmlns="http://www.w3.org/2000/svg" viewBox="0 0 106 74.78"><defs><style>.f{fill:#fff;}</style></defs><g id="a"></g><g id="b"><g id="c"><g id="d"><g id="e"><g><path class="f" d="M42.33,30.72h-7.15c-.67,0-1.12-.55-1-1.23l2.46-13.73c.4-2.28,2.59-4.11,4.85-4.11h5.48l-3.2,17.84c-.12,.67-.77,1.23-1.44,1.23"></path><path class="f" d="M64.5,30.72h-5.48l3.2-17.84c.12-.67,.77-1.23,1.44-1.23h7.15c.67,0,1.12,.55,1,1.23l-2.46,13.73c-.4,2.28-2.59,4.11-4.85,4.11"></path><path class="f" d="M56.97,19.06h-7.15c-.67,0-1.12-.55-1-1.23l2.46-13.73c.4-2.28,2.59-4.11,4.85-4.11h5.48l-3.2,17.84c-.12,.67-.77,1.23-1.44,1.23"></path><path class="f" d="M50.13,41.04h-5.48l3.2-17.84c.12-.67,.77-1.23,1.44-1.23h7.15c.67,0,1.12,.55,1,1.23l-2.46,13.73c-.4,2.28-2.59,4.11-4.85,4.11"></path></g><polygon class="f" points="35.37 55.48 39.84 55.48 39.84 60.16 41.33 60.16 41.33 50.25 39.84 50.25 39.84 53.99 35.37 53.99 35.37 50.25 33.86 50.25 33.86 60.16 35.37 60.16 35.37 55.48"></polygon><polygon class="f" points="46.11 60.16 47.61 60.16 47.61 55.63 50.87 50.25 49.2 50.25 46.88 54.08 44.56 50.29 44.54 50.25 42.87 50.25 46.11 55.66 46.11 60.16"></polygon><polygon class="f" points="60.76 60.16 62.24 60.16 62.24 51.75 64.57 51.75 64.57 50.25 58.45 50.25 58.45 51.75 60.76 51.75 60.76 60.16"></polygon><polygon class="f" points="68.33 60.16 69.81 60.16 69.81 51.75 72.13 51.75 72.13 50.25 66 50.25 66 51.75 68.33 51.75 68.33 60.16"></polygon><path class="f" d="M52.95,56.59l1.52-3.35,1.52,3.35h-3.04Zm1.79-6.23h-.55l-4.36,9.68-.05,.12h1.56l1.02-2.29h4.2l1.05,2.29h1.59l-4.47-9.8h.01Z"></path><polygon class="f" points="84.48 64.53 84.48 74.44 89.14 74.44 89.14 72.96 85.97 72.96 85.97 64.53 84.48 64.53"></polygon><g><path class="f" d="M96.35,70.85c0,1.56-.86,2.46-2.37,2.46s-2.36-.96-2.36-2.71v-6.07h-1.51v5.84c0,1.58,.32,2.5,1.17,3.35,.71,.71,1.56,1.02,2.73,1.02,2.33,0,3.82-1.58,3.82-4.01v-6.21h-1.51v6.3h.01Z"></path><path class="f" d="M101.53,68.58v-2.72h.24c1.14,0,1.86,.48,1.86,1.28,0,.9-.74,1.41-2.1,1.44m0,1.33h.36c1.58,0,2.54,.61,2.54,1.58,0,.54-.42,1.05-1.1,1.35-.44,.19-.89,.24-1.78,.24h-.03v-3.16Zm3.72-.16c-.38-.34-.69-.51-1.35-.77,.9-.57,1.32-1.2,1.32-2.03,0-1.43-1.45-2.42-3.53-2.42h-1.64v9.91h1.68c2.6,0,4.27-1.13,4.27-2.89,0-.73-.26-1.33-.75-1.8"></path><path class="f" d="M82.57,72.58c-.86,.43-1.55,.61-2.34,.61-2.33,0-4.08-1.6-4.08-3.72s1.72-3.7,3.93-3.7c.81,0,1.53,.16,2.48,.58v-1.66c-.92-.34-1.67-.47-2.54-.47-3.02,0-5.48,2.36-5.48,5.24s2.49,5.32,5.56,5.32c.94,0,1.64-.13,2.45-.5v-1.7h.03Z"></path></g><polygon class="f" points="35.64 64.53 35.64 66.04 37.95 66.04 37.95 74.44 39.44 74.44 39.44 66.04 41.75 66.04 41.75 64.53 35.64 64.53"></polygon><rect class="f" x="43.54" y="64.53" width="1.49" height="9.91"></rect><path class="f" d="M52.6,73.22c-2.23,0-3.99-1.63-3.99-3.72s1.72-3.73,3.82-3.73,3.93,1.64,3.93,3.73-1.7,3.72-3.78,3.72m-.05-8.99c-3.03,0-5.51,2.33-5.51,5.21s2.4,5.35,5.45,5.35,5.45-2.34,5.45-5.35-2.42-5.21-5.41-5.21"></path><path class="f" d="M31.69,67.51l1.52,3.35h-3.04l1.52-3.35Zm-.27-2.87l-4.36,9.68-.05,.12h1.56l1.02-2.29h4.2l1.05,2.29h1.59l-4.47-9.8h-.54Z"></path><path class="f" d="M12.75,67.51l1.52,3.35h-3.04l1.52-3.35Zm-.27-2.87l-4.36,9.68-.05,.12h1.56l1.02-2.29h4.2l1.05,2.29h1.59l-4.47-9.8h-.54Z"></path><polygon class="f" points="7.61 64.55 4.59 71.32 1.6 64.55 0 64.55 4.35 74.37 4.82 74.37 9.22 64.55 7.61 64.55"></polygon><path class="f" d="M25.99,72.58c-.86,.43-1.55,.61-2.34,.61-2.33,0-4.08-1.6-4.08-3.72s1.72-3.7,3.93-3.7c.81,0,1.53,.16,2.48,.58v-1.66c-.92-.34-1.67-.47-2.54-.47-3.02,0-5.48,2.36-5.48,5.24s2.49,5.32,5.56,5.32c.94,0,1.64-.13,2.45-.5v-1.7h.03Z"></path><polygon class="f" points="67.21 64.53 67.21 64.64 67.12 64.64 67.12 71.43 60.52 64.64 59.91 64.64 59.91 74.44 61.42 74.44 61.42 67.66 67.98 74.36 68.62 74.36 68.62 64.53 67.21 64.53"></polygon></g></g></g></g></svg> 