<?xml version="1.0" encoding="UTF-8"?> <svg xmlns="http://www.w3.org/2000/svg" viewBox="0 0 140.01 44.7"><defs><style>.cls-1{fill:#fff;}.cls-2{fill:#2151a1;}.cls-3{fill:#eb1933;}</style></defs><g id="Layer_2" data-name="Layer 2"><g id="Layer_1-2" data-name="Layer 1"><g id="pepsi"><path class="cls-1" d="M89.58,20.84a11.59,11.59,0,0,1-2,.39,8.74,8.74,0,0,1-1.35.08c-.87,0-1.81-.07-2.72-.14h0c-.85-.06-1.64-.12-2.41-.12a12.79,12.79,0,0,0-1.52.09,11.19,11.19,0,0,0-2.55.63v-.12a6.56,6.56,0,0,1,5.6-5.7,5.61,5.61,0,0,1,.82,0,6.74,6.74,0,0,1,6.2,4.85v.07Zm3.36,1.22h0c0-.19,0-.49-.09-.81a9.73,9.73,0,0,0-.38-1.7,9.48,9.48,0,0,0-9-6.88,8.9,8.9,0,0,0-1.26.09,9.62,9.62,0,0,0-8.29,10.79l0,.21a9.41,9.41,0,0,0,9.51,8.38A10.29,10.29,0,0,0,84.69,32a9.71,9.71,0,0,0,6.58-3.53.59.59,0,0,0,.13-.41.49.49,0,0,0-.22-.34,19.77,19.77,0,0,0-1.87-1l-.37-.18a.72.72,0,0,0-.4-.12.45.45,0,0,0-.38.22,6.23,6.23,0,0,1-3.92,2.13,5.79,5.79,0,0,1-.83.06,6.41,6.41,0,0,1-6-4.13v-.06h.06A7.77,7.77,0,0,1,80.63,24c.22,0,.44,0,.67,0a13.67,13.67,0,0,1,1.58.18,23.93,23.93,0,0,0,3.28.28,15.48,15.48,0,0,0,2.25-.16A11.3,11.3,0,0,0,92.56,23a.78.78,0,0,0,.38-.9"></path><path class="cls-1" d="M139.47,13.73a.46.46,0,0,0-.44-.45h-2.46a.45.45,0,0,0-.45.45V31.2a.46.46,0,0,0,.45.46H139a.46.46,0,0,0,.45-.46V13.73"></path><path class="cls-1" d="M137.79,7A2.22,2.22,0,1,0,140,9.26,2.21,2.21,0,0,0,137.79,7h0"></path><path class="cls-1" d="M105.25,16a6.3,6.3,0,0,1,6.21,6.39v.14A6.13,6.13,0,0,1,105.67,29h-.21a6.49,6.49,0,0,1-4.53-1.75A6.18,6.18,0,0,1,99,22.59,6.45,6.45,0,0,1,105.24,16m-.11,16.17h.47a9.25,9.25,0,0,0,6.62-2.74,9.71,9.71,0,0,0,2.74-6.9,9.67,9.67,0,0,0-9.47-9.85h-.21A9.52,9.52,0,0,0,96,19.86a21.79,21.79,0,0,0-.38,4.49V38.06a.45.45,0,0,0,.45.45h2.44a.47.47,0,0,0,.46-.46V29.41l.13.13a9.7,9.7,0,0,0,6.06,2.58"></path><path class="cls-1" d="M61.45,16a6.3,6.3,0,0,1,6.21,6.39v.14A6.13,6.13,0,0,1,61.87,29h-.21a6.51,6.51,0,0,1-4.53-1.75,6.29,6.29,0,0,1-1.88-4.6A6.45,6.45,0,0,1,61.45,16m-.11,16.17h.47a9.25,9.25,0,0,0,6.62-2.74,9.74,9.74,0,0,0,2.74-6.92,9.67,9.67,0,0,0-9.47-9.85h-.21A9.52,9.52,0,0,0,52.2,19.9a21.62,21.62,0,0,0-.4,4.47V38.05a.46.46,0,0,0,.45.46h2.44a.47.47,0,0,0,.46-.46V29.41l.12.13a9.75,9.75,0,0,0,6.08,2.58"></path><path class="cls-1" d="M117.32,29.06a10.54,10.54,0,0,0,7.45,3.05h.1c5.2,0,7.52-2.87,7.52-5.66,0-3.87-3.65-4.93-4.77-5.17l-1.12-.21c-.9-.18-1.84-.35-2.69-.59-.6-.16-2.55-.82-2.55-2.26,0-1.61,1.78-2.48,3.46-2.48a6,6,0,0,1,4.07,1.42.69.69,0,0,0,.93,0,17.9,17.9,0,0,0,1.66-1.48.52.52,0,0,0,.17-.39.66.66,0,0,0-.25-.45,9.9,9.9,0,0,0-6.66-2.25h0c-3.89,0-6.83,2.5-6.83,5.82,0,2.63,2.16,4.5,6.08,5.27l2.45.47c1.61.28,2.52,1.15,2.49,2.35s-1.47,2.38-3.82,2.38a7.32,7.32,0,0,1-5-2h0a.64.64,0,0,0-.39-.2.58.58,0,0,0-.36.15l-2,1.6a.33.33,0,0,0-.11.28.56.56,0,0,0,.19.38"></path><path class="cls-1" d="M38.16,38.15a22.35,22.35,0,1,1,0-31.61h0a22.36,22.36,0,0,1,0,31.6"></path><path class="cls-2" d="M39.75,11.07a14.46,14.46,0,0,1-5.32,16c-6.26,4.61-15.38,4.62-28,8.59a20.73,20.73,0,0,0,33.3-24.58"></path><path class="cls-3" d="M34.79,5.76A20.73,20.73,0,0,0,5.67,34.66,43,43,0,0,0,34.79,5.76"></path></g></g></g></svg> 